<?xml version="1.0" encoding="utf-8" standalone="no"?>
<!DOCTYPE svg PUBLIC "-//W3C//DTD SVG 1.1//EN"
  "http://www.w3.org/Graphics/SVG/1.1/DTD/svg11.dtd">
<svg xmlns:xlink="http://www.w3.org/1999/xlink" width="720pt" height="288pt" viewBox="0 0 720 288" xmlns="http://www.w3.org/2000/svg" version="1.1">
 <metadata>
  <rdf:RDF xmlns:dc="http://purl.org/dc/elements/1.1/" xmlns:cc="http://creativecommons.org/ns#" xmlns:rdf="http://www.w3.org/1999/02/22-rdf-syntax-ns#">
   <cc:Work>
    <dc:type rdf:resource="http://purl.org/dc/dcmitype/StillImage"/>
    <dc:date>2025-11-23T18:00:49.891655</dc:date>
    <dc:format>image/svg+xml</dc:format>
    <dc:creator>
     <cc:Agent>
      <dc:title>Matplotlib v3.9.4, https://matplotlib.org/</dc:title>
     </cc:Agent>
    </dc:creator>
   </cc:Work>
  </rdf:RDF>
 </metadata>
 <defs>
  <style type="text/css">*{stroke-linejoin: round; stroke-linecap: butt}</style>
 </defs>
 <g id="figure_1">
  <g id="patch_1">
   <path d="M 0 288 
L 720 288 
L 720 0 
L 0 0 
z
" style="fill: #ffffff"/>
  </g>
  <g id="axes_1">
   <g id="patch_2">
    <path d="M 57.95 243.34 
L 354.6375 243.34 
L 354.6375 26.1 
L 57.95 26.1 
z
" style="fill: #ffffff"/>
   </g>
   <g id="patch_3">
    <path d="M -158751.161776 243.34 
L 71.435795 243.34 
L 71.435795 36.444762 
L -158751.161776 36.444762 
z
" clip-path="url(#pe424b16234)" style="fill: #7c3aed; opacity: 0.8"/>
   </g>
   <g id="patch_4">
    <path d="M 71.435795 243.34 
L 119.225091 243.34 
L 119.225091 213.29093 
L 71.435795 213.29093 
z
" clip-path="url(#pe424b16234)" style="fill: #7c3aed; opacity: 0.8"/>
   </g>
   <g id="patch_5">
    <path d="M 119.225091 243.34 
L 147.180036 243.34 
L 147.180036 236.771897 
L 119.225091 236.771897 
z
" clip-path="url(#pe424b16234)" style="fill: #7c3aed; opacity: 0.8"/>
   </g>
   <g id="patch_6">
    <path d="M 147.180036 243.34 
L 167.014386 243.34 
L 167.014386 241.369569 
L 147.180036 241.369569 
z
" clip-path="url(#pe424b16234)" style="fill: #7c3aed; opacity: 0.8"/>
   </g>
   <g id="patch_7">
    <path d="M 167.014386 243.34 
L 182.399102 243.34 
L 182.399102 242.68319 
L 167.014386 242.68319 
z
" clip-path="url(#pe424b16234)" style="fill: #7c3aed; opacity: 0.8"/>
   </g>
   <g id="patch_8">
    <path d="M 182.399102 243.34 
L 194.969331 243.34 
L 194.969331 242.68319 
L 182.399102 242.68319 
z
" clip-path="url(#pe424b16234)" style="fill: #7c3aed; opacity: 0.8"/>
   </g>
   <g id="patch_9">
    <path d="M 194.969331 243.34 
L 205.597308 243.34 
L 205.597308 242.026379 
L 194.969331 242.026379 
z
" clip-path="url(#pe424b16234)" style="fill: #7c3aed; opacity: 0.8"/>
   </g>
   <g id="patch_10">
    <path d="M 205.597308 243.34 
L 214.803681 243.34 
L 214.803681 239.070733 
L 205.597308 239.070733 
z
" clip-path="url(#pe424b16234)" style="fill: #7c3aed; opacity: 0.8"/>
   </g>
   <g id="patch_11">
    <path d="M 214.803681 243.34 
L 222.924277 243.34 
L 222.924277 242.68319 
L 214.803681 242.68319 
z
" clip-path="url(#pe424b16234)" style="fill: #7c3aed; opacity: 0.8"/>
   </g>
   <g id="patch_12">
    <path d="M 222.924277 243.34 
L 230.188398 243.34 
L 230.188398 242.68319 
L 222.924277 242.68319 
z
" clip-path="url(#pe424b16234)" style="fill: #7c3aed; opacity: 0.8"/>
   </g>
   <g id="patch_13">
    <path d="M 230.188398 243.34 
L 236.759594 243.34 
L 236.759594 243.011595 
L 230.188398 243.011595 
z
" clip-path="url(#pe424b16234)" style="fill: #7c3aed; opacity: 0.8"/>
   </g>
   <g id="patch_14">
    <path d="M 236.759594 243.34 
L 242.758626 243.34 
L 242.758626 242.847392 
L 236.759594 242.847392 
z
" clip-path="url(#pe424b16234)" style="fill: #7c3aed; opacity: 0.8"/>
   </g>
   <g id="patch_15">
    <path d="M 242.758626 243.34 
L 248.277201 243.34 
L 248.277201 243.011595 
L 242.758626 243.011595 
z
" clip-path="url(#pe424b16234)" style="fill: #7c3aed; opacity: 0.8"/>
   </g>
   <g id="patch_16">
    <path d="M 248.277201 243.34 
L 253.386603 243.34 
L 253.386603 243.34 
L 248.277201 243.34 
z
" clip-path="url(#pe424b16234)" style="fill: #7c3aed; opacity: 0.8"/>
   </g>
   <g id="patch_17">
    <path d="M 253.386603 243.34 
L 258.143343 243.34 
L 258.143343 243.011595 
L 253.386603 243.011595 
z
" clip-path="url(#pe424b16234)" style="fill: #7c3aed; opacity: 0.8"/>
   </g>
   <g id="patch_18">
    <path d="M 258.143343 243.34 
L 262.592976 243.34 
L 262.592976 243.34 
L 258.143343 243.34 
z
" clip-path="url(#pe424b16234)" style="fill: #7c3aed; opacity: 0.8"/>
   </g>
   <g id="patch_19">
    <path d="M 262.592976 243.34 
L 266.772763 243.34 
L 266.772763 243.175797 
L 262.592976 243.175797 
z
" clip-path="url(#pe424b16234)" style="fill: #7c3aed; opacity: 0.8"/>
   </g>
   <g id="patch_20">
    <path d="M 266.772763 243.34 
L 270.713572 243.34 
L 270.713572 243.34 
L 266.772763 243.34 
z
" clip-path="url(#pe424b16234)" style="fill: #7c3aed; opacity: 0.8"/>
   </g>
   <g id="patch_21">
    <path d="M 270.713572 243.34 
L 274.441257 243.34 
L 274.441257 243.34 
L 270.713572 243.34 
z
" clip-path="url(#pe424b16234)" style="fill: #7c3aed; opacity: 0.8"/>
   </g>
   <g id="patch_22">
    <path d="M 274.441257 243.34 
L 277.977693 243.34 
L 277.977693 243.34 
L 274.441257 243.34 
z
" clip-path="url(#pe424b16234)" style="fill: #7c3aed; opacity: 0.8"/>
   </g>
   <g id="patch_23">
    <path d="M 277.977693 243.34 
L 281.341549 243.34 
L 281.341549 243.175797 
L 277.977693 243.175797 
z
" clip-path="url(#pe424b16234)" style="fill: #7c3aed; opacity: 0.8"/>
   </g>
   <g id="patch_24">
    <path d="M 281.341549 243.34 
L 284.548889 243.34 
L 284.548889 243.34 
L 281.341549 243.34 
z
" clip-path="url(#pe424b16234)" style="fill: #7c3aed; opacity: 0.8"/>
   </g>
   <g id="patch_25">
    <path d="M 284.548889 243.34 
L 287.613633 243.34 
L 287.613633 243.34 
L 284.548889 243.34 
z
" clip-path="url(#pe424b16234)" style="fill: #7c3aed; opacity: 0.8"/>
   </g>
   <g id="patch_26">
    <path d="M 287.613633 243.34 
L 290.547922 243.34 
L 290.547922 243.34 
L 287.613633 243.34 
z
" clip-path="url(#pe424b16234)" style="fill: #7c3aed; opacity: 0.8"/>
   </g>
   <g id="patch_27">
    <path d="M 290.547922 243.34 
L 293.362409 243.34 
L 293.362409 243.34 
L 290.547922 243.34 
z
" clip-path="url(#pe424b16234)" style="fill: #7c3aed; opacity: 0.8"/>
   </g>
   <g id="patch_28">
    <path d="M 293.362409 243.34 
L 296.066496 243.34 
L 296.066496 243.34 
L 293.362409 243.34 
z
" clip-path="url(#pe424b16234)" style="fill: #7c3aed; opacity: 0.8"/>
   </g>
   <g id="patch_29">
    <path d="M 296.066496 243.34 
L 298.668518 243.34 
L 298.668518 243.34 
L 296.066496 243.34 
z
" clip-path="url(#pe424b16234)" style="fill: #7c3aed; opacity: 0.8"/>
   </g>
   <g id="patch_30">
    <path d="M 298.668518 243.34 
L 301.175899 243.34 
L 301.175899 243.34 
L 298.668518 243.34 
z
" clip-path="url(#pe424b16234)" style="fill: #7c3aed; opacity: 0.8"/>
   </g>
   <g id="patch_31">
    <path d="M 301.175899 243.34 
L 303.595283 243.34 
L 303.595283 243.34 
L 301.175899 243.34 
z
" clip-path="url(#pe424b16234)" style="fill: #7c3aed; opacity: 0.8"/>
   </g>
   <g id="patch_32">
    <path d="M 303.595283 243.34 
L 305.932638 243.34 
L 305.932638 243.175797 
L 303.595283 243.175797 
z
" clip-path="url(#pe424b16234)" style="fill: #7c3aed; opacity: 0.8"/>
   </g>
   <g id="patch_33">
    <path d="M 305.932638 243.34 
L 308.193345 243.34 
L 308.193345 243.34 
L 305.932638 243.34 
z
" clip-path="url(#pe424b16234)" style="fill: #7c3aed; opacity: 0.8"/>
   </g>
   <g id="patch_34">
    <path d="M 308.193345 243.34 
L 310.382271 243.34 
L 310.382271 243.34 
L 308.193345 243.34 
z
" clip-path="url(#pe424b16234)" style="fill: #7c3aed; opacity: 0.8"/>
   </g>
   <g id="patch_35">
    <path d="M 310.382271 243.34 
L 312.503835 243.34 
L 312.503835 243.34 
L 310.382271 243.34 
z
" clip-path="url(#pe424b16234)" style="fill: #7c3aed; opacity: 0.8"/>
   </g>
   <g id="patch_36">
    <path d="M 312.503835 243.34 
L 314.562059 243.34 
L 314.562059 243.175797 
L 312.503835 243.175797 
z
" clip-path="url(#pe424b16234)" style="fill: #7c3aed; opacity: 0.8"/>
   </g>
   <g id="patch_37">
    <path d="M 314.562059 243.34 
L 316.560615 243.34 
L 316.560615 243.34 
L 314.562059 243.34 
z
" clip-path="url(#pe424b16234)" style="fill: #7c3aed; opacity: 0.8"/>
   </g>
   <g id="patch_38">
    <path d="M 316.560615 243.34 
L 318.502867 243.34 
L 318.502867 243.34 
L 316.560615 243.34 
z
" clip-path="url(#pe424b16234)" style="fill: #7c3aed; opacity: 0.8"/>
   </g>
   <g id="patch_39">
    <path d="M 318.502867 243.34 
L 320.3919 243.34 
L 320.3919 243.34 
L 318.502867 243.34 
z
" clip-path="url(#pe424b16234)" style="fill: #7c3aed; opacity: 0.8"/>
   </g>
   <g id="patch_40">
    <path d="M 320.3919 243.34 
L 322.230552 243.34 
L 322.230552 243.34 
L 320.3919 243.34 
z
" clip-path="url(#pe424b16234)" style="fill: #7c3aed; opacity: 0.8"/>
   </g>
   <g id="patch_41">
    <path d="M 322.230552 243.34 
L 324.021442 243.34 
L 324.021442 243.34 
L 322.230552 243.34 
z
" clip-path="url(#pe424b16234)" style="fill: #7c3aed; opacity: 0.8"/>
   </g>
   <g id="patch_42">
    <path d="M 324.021442 243.34 
L 325.766988 243.34 
L 325.766988 243.34 
L 324.021442 243.34 
z
" clip-path="url(#pe424b16234)" style="fill: #7c3aed; opacity: 0.8"/>
   </g>
   <g id="patch_43">
    <path d="M 325.766988 243.34 
L 327.469429 243.34 
L 327.469429 243.34 
L 325.766988 243.34 
z
" clip-path="url(#pe424b16234)" style="fill: #7c3aed; opacity: 0.8"/>
   </g>
   <g id="patch_44">
    <path d="M 327.469429 243.34 
L 329.130844 243.34 
L 329.130844 243.34 
L 327.469429 243.34 
z
" clip-path="url(#pe424b16234)" style="fill: #7c3aed; opacity: 0.8"/>
   </g>
   <g id="patch_45">
    <path d="M 329.130844 243.34 
L 330.753163 243.34 
L 330.753163 243.34 
L 329.130844 243.34 
z
" clip-path="url(#pe424b16234)" style="fill: #7c3aed; opacity: 0.8"/>
   </g>
   <g id="patch_46">
    <path d="M 330.753163 243.34 
L 332.338184 243.34 
L 332.338184 243.34 
L 330.753163 243.34 
z
" clip-path="url(#pe424b16234)" style="fill: #7c3aed; opacity: 0.8"/>
   </g>
   <g id="patch_47">
    <path d="M 332.338184 243.34 
L 333.887584 243.34 
L 333.887584 243.34 
L 332.338184 243.34 
z
" clip-path="url(#pe424b16234)" style="fill: #7c3aed; opacity: 0.8"/>
   </g>
   <g id="patch_48">
    <path d="M 333.887584 243.34 
L 335.402928 243.34 
L 335.402928 243.34 
L 333.887584 243.34 
z
" clip-path="url(#pe424b16234)" style="fill: #7c3aed; opacity: 0.8"/>
   </g>
   <g id="patch_49">
    <path d="M 335.402928 243.34 
L 336.885681 243.34 
L 336.885681 243.34 
L 335.402928 243.34 
z
" clip-path="url(#pe424b16234)" style="fill: #7c3aed; opacity: 0.8"/>
   </g>
   <g id="patch_50">
    <path d="M 336.885681 243.34 
L 338.337217 243.34 
L 338.337217 243.34 
L 336.885681 243.34 
z
" clip-path="url(#pe424b16234)" style="fill: #7c3aed; opacity: 0.8"/>
   </g>
   <g id="patch_51">
    <path d="M 338.337217 243.34 
L 339.758821 243.34 
L 339.758821 243.34 
L 338.337217 243.34 
z
" clip-path="url(#pe424b16234)" style="fill: #7c3aed; opacity: 0.8"/>
   </g>
   <g id="patch_52">
    <path d="M 339.758821 243.34 
L 341.151705 243.34 
L 341.151705 243.175797 
L 339.758821 243.175797 
z
" clip-path="url(#pe424b16234)" style="fill: #7c3aed; opacity: 0.8"/>
   </g>
   <g id="matplotlib.axis_1">
    <g id="xtick_1">
     <g id="line2d_1">
      <path d="M 160.192933 243.34 
L 160.192933 26.1 
" clip-path="url(#pe424b16234)" style="fill: none; stroke-dasharray: 0.8,1.32; stroke-dashoffset: 0; stroke: #b0b0b0; stroke-width: 0.8"/>
     </g>
     <g id="line2d_2">
      <defs>
       <path id="m3c8a377da7" d="M 0 0 
L 0 3.5 
" style="stroke: #000000; stroke-width: 0.8"/>
      </defs>
      <g>
       <use xlink:href="#m3c8a377da7" x="160.192933" y="243.34" style="stroke: #000000; stroke-width: 0.8"/>
      </g>
     </g>
     <g id="text_1">
      <!-- $\mathdefault{10^{1}}$ -->
      <g transform="translate(151.392933 257.938437) scale(0.1 -0.1)">
       <defs>
        <path id="DejaVuSans-31" d="M 794 531 
L 1825 531 
L 1825 4091 
L 703 3866 
L 703 4441 
L 1819 4666 
L 2450 4666 
L 2450 531 
L 3481 531 
L 3481 0 
L 794 0 
L 794 531 
z
" transform="scale(0.015625)"/>
        <path id="DejaVuSans-30" d="M 2034 4250 
Q 1547 4250 1301 3770 
Q 1056 3291 1056 2328 
Q 1056 1369 1301 889 
Q 1547 409 2034 409 
Q 2525 409 2770 889 
Q 3016 1369 3016 2328 
Q 3016 3291 2770 3770 
Q 2525 4250 2034 4250 
z
M 2034 4750 
Q 2819 4750 3233 4129 
Q 3647 3509 3647 2328 
Q 3647 1150 3233 529 
Q 2819 -91 2034 -91 
Q 1250 -91 836 529 
Q 422 1150 422 2328 
Q 422 3509 836 4129 
Q 1250 4750 2034 4750 
z
" transform="scale(0.015625)"/>
       </defs>
       <use xlink:href="#DejaVuSans-31" transform="translate(0 0.684375)"/>
       <use xlink:href="#DejaVuSans-30" transform="translate(63.623047 0.684375)"/>
       <use xlink:href="#DejaVuSans-31" transform="translate(128.203125 38.965625) scale(0.7)"/>
      </g>
     </g>
    </g>
    <g id="xtick_2">
     <g id="line2d_3">
      <path d="M 318.945536 243.34 
L 318.945536 26.1 
" clip-path="url(#pe424b16234)" style="fill: none; stroke-dasharray: 0.8,1.32; stroke-dashoffset: 0; stroke: #b0b0b0; stroke-width: 0.8"/>
     </g>
     <g id="line2d_4">
      <g>
       <use xlink:href="#m3c8a377da7" x="318.945536" y="243.34" style="stroke: #000000; stroke-width: 0.8"/>
      </g>
     </g>
     <g id="text_2">
      <!-- $\mathdefault{10^{2}}$ -->
      <g transform="translate(310.145536 257.938437) scale(0.1 -0.1)">
       <defs>
        <path id="DejaVuSans-32" d="M 1228 531 
L 3431 531 
L 3431 0 
L 469 0 
L 469 531 
Q 828 903 1448 1529 
Q 2069 2156 2228 2338 
Q 2531 2678 2651 2914 
Q 2772 3150 2772 3378 
Q 2772 3750 2511 3984 
Q 2250 4219 1831 4219 
Q 1534 4219 1204 4116 
Q 875 4013 500 3803 
L 500 4441 
Q 881 4594 1212 4672 
Q 1544 4750 1819 4750 
Q 2544 4750 2975 4387 
Q 3406 4025 3406 3419 
Q 3406 3131 3298 2873 
Q 3191 2616 2906 2266 
Q 2828 2175 2409 1742 
Q 1991 1309 1228 531 
z
" transform="scale(0.015625)"/>
       </defs>
       <use xlink:href="#DejaVuSans-31" transform="translate(0 0.765625)"/>
       <use xlink:href="#DejaVuSans-30" transform="translate(63.623047 0.765625)"/>
       <use xlink:href="#DejaVuSans-32" transform="translate(128.203125 39.046875) scale(0.7)"/>
      </g>
     </g>
    </g>
    <g id="xtick_3">
     <g id="line2d_5">
      <defs>
       <path id="m3a3b5f2e3d" d="M 0 0 
L 0 2 
" style="stroke: #000000; stroke-width: 0.6"/>
      </defs>
      <g>
       <use xlink:href="#m3a3b5f2e3d" x="77.184572" y="243.34" style="stroke: #000000; stroke-width: 0.6"/>
      </g>
     </g>
    </g>
    <g id="xtick_4">
     <g id="line2d_6">
      <g>
       <use xlink:href="#m3a3b5f2e3d" x="97.018922" y="243.34" style="stroke: #000000; stroke-width: 0.6"/>
      </g>
     </g>
    </g>
    <g id="xtick_5">
     <g id="line2d_7">
      <g>
       <use xlink:href="#m3a3b5f2e3d" x="112.403638" y="243.34" style="stroke: #000000; stroke-width: 0.6"/>
      </g>
     </g>
    </g>
    <g id="xtick_6">
     <g id="line2d_8">
      <g>
       <use xlink:href="#m3a3b5f2e3d" x="124.973867" y="243.34" style="stroke: #000000; stroke-width: 0.6"/>
      </g>
     </g>
    </g>
    <g id="xtick_7">
     <g id="line2d_9">
      <g>
       <use xlink:href="#m3a3b5f2e3d" x="135.601844" y="243.34" style="stroke: #000000; stroke-width: 0.6"/>
      </g>
     </g>
    </g>
    <g id="xtick_8">
     <g id="line2d_10">
      <g>
       <use xlink:href="#m3a3b5f2e3d" x="144.808217" y="243.34" style="stroke: #000000; stroke-width: 0.6"/>
      </g>
     </g>
    </g>
    <g id="xtick_9">
     <g id="line2d_11">
      <g>
       <use xlink:href="#m3a3b5f2e3d" x="152.928813" y="243.34" style="stroke: #000000; stroke-width: 0.6"/>
      </g>
     </g>
    </g>
    <g id="xtick_10">
     <g id="line2d_12">
      <g>
       <use xlink:href="#m3a3b5f2e3d" x="207.982229" y="243.34" style="stroke: #000000; stroke-width: 0.6"/>
      </g>
     </g>
    </g>
    <g id="xtick_11">
     <g id="line2d_13">
      <g>
       <use xlink:href="#m3a3b5f2e3d" x="235.937174" y="243.34" style="stroke: #000000; stroke-width: 0.6"/>
      </g>
     </g>
    </g>
    <g id="xtick_12">
     <g id="line2d_14">
      <g>
       <use xlink:href="#m3a3b5f2e3d" x="255.771524" y="243.34" style="stroke: #000000; stroke-width: 0.6"/>
      </g>
     </g>
    </g>
    <g id="xtick_13">
     <g id="line2d_15">
      <g>
       <use xlink:href="#m3a3b5f2e3d" x="271.15624" y="243.34" style="stroke: #000000; stroke-width: 0.6"/>
      </g>
     </g>
    </g>
    <g id="xtick_14">
     <g id="line2d_16">
      <g>
       <use xlink:href="#m3a3b5f2e3d" x="283.726469" y="243.34" style="stroke: #000000; stroke-width: 0.6"/>
      </g>
     </g>
    </g>
    <g id="xtick_15">
     <g id="line2d_17">
      <g>
       <use xlink:href="#m3a3b5f2e3d" x="294.354446" y="243.34" style="stroke: #000000; stroke-width: 0.6"/>
      </g>
     </g>
    </g>
    <g id="xtick_16">
     <g id="line2d_18">
      <g>
       <use xlink:href="#m3a3b5f2e3d" x="303.560819" y="243.34" style="stroke: #000000; stroke-width: 0.6"/>
      </g>
     </g>
    </g>
    <g id="xtick_17">
     <g id="line2d_19">
      <g>
       <use xlink:href="#m3a3b5f2e3d" x="311.681415" y="243.34" style="stroke: #000000; stroke-width: 0.6"/>
      </g>
     </g>
    </g>
    <g id="text_3">
     <!-- In-Degree -->
     <g transform="translate(181.649219 271.616562) scale(0.1 -0.1)">
      <defs>
       <path id="DejaVuSans-49" d="M 628 4666 
L 1259 4666 
L 1259 0 
L 628 0 
L 628 4666 
z
" transform="scale(0.015625)"/>
       <path id="DejaVuSans-6e" d="M 3513 2113 
L 3513 0 
L 2938 0 
L 2938 2094 
Q 2938 2591 2744 2837 
Q 2550 3084 2163 3084 
Q 1697 3084 1428 2787 
Q 1159 2491 1159 1978 
L 1159 0 
L 581 0 
L 581 3500 
L 1159 3500 
L 1159 2956 
Q 1366 3272 1645 3428 
Q 1925 3584 2291 3584 
Q 2894 3584 3203 3211 
Q 3513 2838 3513 2113 
z
" transform="scale(0.015625)"/>
       <path id="DejaVuSans-2d" d="M 313 2009 
L 1997 2009 
L 1997 1497 
L 313 1497 
L 313 2009 
z
" transform="scale(0.015625)"/>
       <path id="DejaVuSans-44" d="M 1259 4147 
L 1259 519 
L 2022 519 
Q 2988 519 3436 956 
Q 3884 1394 3884 2338 
Q 3884 3275 3436 3711 
Q 2988 4147 2022 4147 
L 1259 4147 
z
M 628 4666 
L 1925 4666 
Q 3281 4666 3915 4102 
Q 4550 3538 4550 2338 
Q 4550 1131 3912 565 
Q 3275 0 1925 0 
L 628 0 
L 628 4666 
z
" transform="scale(0.015625)"/>
       <path id="DejaVuSans-65" d="M 3597 1894 
L 3597 1613 
L 953 1613 
Q 991 1019 1311 708 
Q 1631 397 2203 397 
Q 2534 397 2845 478 
Q 3156 559 3463 722 
L 3463 178 
Q 3153 47 2828 -22 
Q 2503 -91 2169 -91 
Q 1331 -91 842 396 
Q 353 884 353 1716 
Q 353 2575 817 3079 
Q 1281 3584 2069 3584 
Q 2775 3584 3186 3129 
Q 3597 2675 3597 1894 
z
M 3022 2063 
Q 3016 2534 2758 2815 
Q 2500 3097 2075 3097 
Q 1594 3097 1305 2825 
Q 1016 2553 972 2059 
L 3022 2063 
z
" transform="scale(0.015625)"/>
       <path id="DejaVuSans-67" d="M 2906 1791 
Q 2906 2416 2648 2759 
Q 2391 3103 1925 3103 
Q 1463 3103 1205 2759 
Q 947 2416 947 1791 
Q 947 1169 1205 825 
Q 1463 481 1925 481 
Q 2391 481 2648 825 
Q 2906 1169 2906 1791 
z
M 3481 434 
Q 3481 -459 3084 -895 
Q 2688 -1331 1869 -1331 
Q 1566 -1331 1297 -1286 
Q 1028 -1241 775 -1147 
L 775 -588 
Q 1028 -725 1275 -790 
Q 1522 -856 1778 -856 
Q 2344 -856 2625 -561 
Q 2906 -266 2906 331 
L 2906 616 
Q 2728 306 2450 153 
Q 2172 0 1784 0 
Q 1141 0 747 490 
Q 353 981 353 1791 
Q 353 2603 747 3093 
Q 1141 3584 1784 3584 
Q 2172 3584 2450 3431 
Q 2728 3278 2906 2969 
L 2906 3500 
L 3481 3500 
L 3481 434 
z
" transform="scale(0.015625)"/>
       <path id="DejaVuSans-72" d="M 2631 2963 
Q 2534 3019 2420 3045 
Q 2306 3072 2169 3072 
Q 1681 3072 1420 2755 
Q 1159 2438 1159 1844 
L 1159 0 
L 581 0 
L 581 3500 
L 1159 3500 
L 1159 2956 
Q 1341 3275 1631 3429 
Q 1922 3584 2338 3584 
Q 2397 3584 2469 3576 
Q 2541 3569 2628 3553 
L 2631 2963 
z
" transform="scale(0.015625)"/>
      </defs>
      <use xlink:href="#DejaVuSans-49"/>
      <use xlink:href="#DejaVuSans-6e" x="29.492188"/>
      <use xlink:href="#DejaVuSans-2d" x="92.871094"/>
      <use xlink:href="#DejaVuSans-44" x="128.955078"/>
      <use xlink:href="#DejaVuSans-65" x="205.957031"/>
      <use xlink:href="#DejaVuSans-67" x="267.480469"/>
      <use xlink:href="#DejaVuSans-72" x="330.957031"/>
      <use xlink:href="#DejaVuSans-65" x="369.820312"/>
      <use xlink:href="#DejaVuSans-65" x="431.34375"/>
     </g>
    </g>
   </g>
   <g id="matplotlib.axis_2">
    <g id="ytick_1">
     <g id="line2d_20">
      <path d="M 57.95 243.34 
L 354.6375 243.34 
" clip-path="url(#pe424b16234)" style="fill: none; stroke-dasharray: 0.8,1.32; stroke-dashoffset: 0; stroke: #b0b0b0; stroke-width: 0.8"/>
     </g>
     <g id="line2d_21">
      <defs>
       <path id="md7d03a8603" d="M 0 0 
L -3.5 0 
" style="stroke: #000000; stroke-width: 0.8"/>
      </defs>
      <g>
       <use xlink:href="#md7d03a8603" x="57.95" y="243.34" style="stroke: #000000; stroke-width: 0.8"/>
      </g>
     </g>
     <g id="text_4">
      <!-- 0 -->
      <g transform="translate(44.5875 247.139219) scale(0.1 -0.1)">
       <use xlink:href="#DejaVuSans-30"/>
      </g>
     </g>
    </g>
    <g id="ytick_2">
     <g id="line2d_22">
      <path d="M 57.95 210.499486 
L 354.6375 210.499486 
" clip-path="url(#pe424b16234)" style="fill: none; stroke-dasharray: 0.8,1.32; stroke-dashoffset: 0; stroke: #b0b0b0; stroke-width: 0.8"/>
     </g>
     <g id="line2d_23">
      <g>
       <use xlink:href="#md7d03a8603" x="57.95" y="210.499486" style="stroke: #000000; stroke-width: 0.8"/>
      </g>
     </g>
     <g id="text_5">
      <!-- 200 -->
      <g transform="translate(31.8625 214.298705) scale(0.1 -0.1)">
       <use xlink:href="#DejaVuSans-32"/>
       <use xlink:href="#DejaVuSans-30" x="63.623047"/>
       <use xlink:href="#DejaVuSans-30" x="127.246094"/>
      </g>
     </g>
    </g>
    <g id="ytick_3">
     <g id="line2d_24">
      <path d="M 57.95 177.658972 
L 354.6375 177.658972 
" clip-path="url(#pe424b16234)" style="fill: none; stroke-dasharray: 0.8,1.32; stroke-dashoffset: 0; stroke: #b0b0b0; stroke-width: 0.8"/>
     </g>
     <g id="line2d_25">
      <g>
       <use xlink:href="#md7d03a8603" x="57.95" y="177.658972" style="stroke: #000000; stroke-width: 0.8"/>
      </g>
     </g>
     <g id="text_6">
      <!-- 400 -->
      <g transform="translate(31.8625 181.458191) scale(0.1 -0.1)">
       <defs>
        <path id="DejaVuSans-34" d="M 2419 4116 
L 825 1625 
L 2419 1625 
L 2419 4116 
z
M 2253 4666 
L 3047 4666 
L 3047 1625 
L 3713 1625 
L 3713 1100 
L 3047 1100 
L 3047 0 
L 2419 0 
L 2419 1100 
L 313 1100 
L 313 1709 
L 2253 4666 
z
" transform="scale(0.015625)"/>
       </defs>
       <use xlink:href="#DejaVuSans-34"/>
       <use xlink:href="#DejaVuSans-30" x="63.623047"/>
       <use xlink:href="#DejaVuSans-30" x="127.246094"/>
      </g>
     </g>
    </g>
    <g id="ytick_4">
     <g id="line2d_26">
      <path d="M 57.95 144.818458 
L 354.6375 144.818458 
" clip-path="url(#pe424b16234)" style="fill: none; stroke-dasharray: 0.8,1.32; stroke-dashoffset: 0; stroke: #b0b0b0; stroke-width: 0.8"/>
     </g>
     <g id="line2d_27">
      <g>
       <use xlink:href="#md7d03a8603" x="57.95" y="144.818458" style="stroke: #000000; stroke-width: 0.8"/>
      </g>
     </g>
     <g id="text_7">
      <!-- 600 -->
      <g transform="translate(31.8625 148.617677) scale(0.1 -0.1)">
       <defs>
        <path id="DejaVuSans-36" d="M 2113 2584 
Q 1688 2584 1439 2293 
Q 1191 2003 1191 1497 
Q 1191 994 1439 701 
Q 1688 409 2113 409 
Q 2538 409 2786 701 
Q 3034 994 3034 1497 
Q 3034 2003 2786 2293 
Q 2538 2584 2113 2584 
z
M 3366 4563 
L 3366 3988 
Q 3128 4100 2886 4159 
Q 2644 4219 2406 4219 
Q 1781 4219 1451 3797 
Q 1122 3375 1075 2522 
Q 1259 2794 1537 2939 
Q 1816 3084 2150 3084 
Q 2853 3084 3261 2657 
Q 3669 2231 3669 1497 
Q 3669 778 3244 343 
Q 2819 -91 2113 -91 
Q 1303 -91 875 529 
Q 447 1150 447 2328 
Q 447 3434 972 4092 
Q 1497 4750 2381 4750 
Q 2619 4750 2861 4703 
Q 3103 4656 3366 4563 
z
" transform="scale(0.015625)"/>
       </defs>
       <use xlink:href="#DejaVuSans-36"/>
       <use xlink:href="#DejaVuSans-30" x="63.623047"/>
       <use xlink:href="#DejaVuSans-30" x="127.246094"/>
      </g>
     </g>
    </g>
    <g id="ytick_5">
     <g id="line2d_28">
      <path d="M 57.95 111.977944 
L 354.6375 111.977944 
" clip-path="url(#pe424b16234)" style="fill: none; stroke-dasharray: 0.8,1.32; stroke-dashoffset: 0; stroke: #b0b0b0; stroke-width: 0.8"/>
     </g>
     <g id="line2d_29">
      <g>
       <use xlink:href="#md7d03a8603" x="57.95" y="111.977944" style="stroke: #000000; stroke-width: 0.8"/>
      </g>
     </g>
     <g id="text_8">
      <!-- 800 -->
      <g transform="translate(31.8625 115.777163) scale(0.1 -0.1)">
       <defs>
        <path id="DejaVuSans-38" d="M 2034 2216 
Q 1584 2216 1326 1975 
Q 1069 1734 1069 1313 
Q 1069 891 1326 650 
Q 1584 409 2034 409 
Q 2484 409 2743 651 
Q 3003 894 3003 1313 
Q 3003 1734 2745 1975 
Q 2488 2216 2034 2216 
z
M 1403 2484 
Q 997 2584 770 2862 
Q 544 3141 544 3541 
Q 544 4100 942 4425 
Q 1341 4750 2034 4750 
Q 2731 4750 3128 4425 
Q 3525 4100 3525 3541 
Q 3525 3141 3298 2862 
Q 3072 2584 2669 2484 
Q 3125 2378 3379 2068 
Q 3634 1759 3634 1313 
Q 3634 634 3220 271 
Q 2806 -91 2034 -91 
Q 1263 -91 848 271 
Q 434 634 434 1313 
Q 434 1759 690 2068 
Q 947 2378 1403 2484 
z
M 1172 3481 
Q 1172 3119 1398 2916 
Q 1625 2713 2034 2713 
Q 2441 2713 2670 2916 
Q 2900 3119 2900 3481 
Q 2900 3844 2670 4047 
Q 2441 4250 2034 4250 
Q 1625 4250 1398 4047 
Q 1172 3844 1172 3481 
z
" transform="scale(0.015625)"/>
       </defs>
       <use xlink:href="#DejaVuSans-38"/>
       <use xlink:href="#DejaVuSans-30" x="63.623047"/>
       <use xlink:href="#DejaVuSans-30" x="127.246094"/>
      </g>
     </g>
    </g>
    <g id="ytick_6">
     <g id="line2d_30">
      <path d="M 57.95 79.13743 
L 354.6375 79.13743 
" clip-path="url(#pe424b16234)" style="fill: none; stroke-dasharray: 0.8,1.32; stroke-dashoffset: 0; stroke: #b0b0b0; stroke-width: 0.8"/>
     </g>
     <g id="line2d_31">
      <g>
       <use xlink:href="#md7d03a8603" x="57.95" y="79.13743" style="stroke: #000000; stroke-width: 0.8"/>
      </g>
     </g>
     <g id="text_9">
      <!-- 1000 -->
      <g transform="translate(25.5 82.936649) scale(0.1 -0.1)">
       <use xlink:href="#DejaVuSans-31"/>
       <use xlink:href="#DejaVuSans-30" x="63.623047"/>
       <use xlink:href="#DejaVuSans-30" x="127.246094"/>
       <use xlink:href="#DejaVuSans-30" x="190.869141"/>
      </g>
     </g>
    </g>
    <g id="ytick_7">
     <g id="line2d_32">
      <path d="M 57.95 46.296916 
L 354.6375 46.296916 
" clip-path="url(#pe424b16234)" style="fill: none; stroke-dasharray: 0.8,1.32; stroke-dashoffset: 0; stroke: #b0b0b0; stroke-width: 0.8"/>
     </g>
     <g id="line2d_33">
      <g>
       <use xlink:href="#md7d03a8603" x="57.95" y="46.296916" style="stroke: #000000; stroke-width: 0.8"/>
      </g>
     </g>
     <g id="text_10">
      <!-- 1200 -->
      <g transform="translate(25.5 50.096135) scale(0.1 -0.1)">
       <use xlink:href="#DejaVuSans-31"/>
       <use xlink:href="#DejaVuSans-32" x="63.623047"/>
       <use xlink:href="#DejaVuSans-30" x="127.246094"/>
       <use xlink:href="#DejaVuSans-30" x="190.869141"/>
      </g>
     </g>
    </g>
    <g id="text_11">
     <!-- Frekans -->
     <g transform="translate(19.420312 153.898125) rotate(-90) scale(0.1 -0.1)">
      <defs>
       <path id="DejaVuSans-46" d="M 628 4666 
L 3309 4666 
L 3309 4134 
L 1259 4134 
L 1259 2759 
L 3109 2759 
L 3109 2228 
L 1259 2228 
L 1259 0 
L 628 0 
L 628 4666 
z
" transform="scale(0.015625)"/>
       <path id="DejaVuSans-6b" d="M 581 4863 
L 1159 4863 
L 1159 1991 
L 2875 3500 
L 3609 3500 
L 1753 1863 
L 3688 0 
L 2938 0 
L 1159 1709 
L 1159 0 
L 581 0 
L 581 4863 
z
" transform="scale(0.015625)"/>
       <path id="DejaVuSans-61" d="M 2194 1759 
Q 1497 1759 1228 1600 
Q 959 1441 959 1056 
Q 959 750 1161 570 
Q 1363 391 1709 391 
Q 2188 391 2477 730 
Q 2766 1069 2766 1631 
L 2766 1759 
L 2194 1759 
z
M 3341 1997 
L 3341 0 
L 2766 0 
L 2766 531 
Q 2569 213 2275 61 
Q 1981 -91 1556 -91 
Q 1019 -91 701 211 
Q 384 513 384 1019 
Q 384 1609 779 1909 
Q 1175 2209 1959 2209 
L 2766 2209 
L 2766 2266 
Q 2766 2663 2505 2880 
Q 2244 3097 1772 3097 
Q 1472 3097 1187 3025 
Q 903 2953 641 2809 
L 641 3341 
Q 956 3463 1253 3523 
Q 1550 3584 1831 3584 
Q 2591 3584 2966 3190 
Q 3341 2797 3341 1997 
z
" transform="scale(0.015625)"/>
       <path id="DejaVuSans-73" d="M 2834 3397 
L 2834 2853 
Q 2591 2978 2328 3040 
Q 2066 3103 1784 3103 
Q 1356 3103 1142 2972 
Q 928 2841 928 2578 
Q 928 2378 1081 2264 
Q 1234 2150 1697 2047 
L 1894 2003 
Q 2506 1872 2764 1633 
Q 3022 1394 3022 966 
Q 3022 478 2636 193 
Q 2250 -91 1575 -91 
Q 1294 -91 989 -36 
Q 684 19 347 128 
L 347 722 
Q 666 556 975 473 
Q 1284 391 1588 391 
Q 1994 391 2212 530 
Q 2431 669 2431 922 
Q 2431 1156 2273 1281 
Q 2116 1406 1581 1522 
L 1381 1569 
Q 847 1681 609 1914 
Q 372 2147 372 2553 
Q 372 3047 722 3315 
Q 1072 3584 1716 3584 
Q 2034 3584 2315 3537 
Q 2597 3491 2834 3397 
z
" transform="scale(0.015625)"/>
      </defs>
      <use xlink:href="#DejaVuSans-46"/>
      <use xlink:href="#DejaVuSans-72" x="50.269531"/>
      <use xlink:href="#DejaVuSans-65" x="89.132812"/>
      <use xlink:href="#DejaVuSans-6b" x="150.65625"/>
      <use xlink:href="#DejaVuSans-61" x="206.816406"/>
      <use xlink:href="#DejaVuSans-6e" x="268.095703"/>
      <use xlink:href="#DejaVuSans-73" x="331.474609"/>
     </g>
    </g>
   </g>
   <g id="patch_53">
    <path d="M 57.95 243.34 
L 57.95 26.1 
" style="fill: none; stroke: #000000; stroke-width: 0.8; stroke-linejoin: miter; stroke-linecap: square"/>
   </g>
   <g id="patch_54">
    <path d="M 354.6375 243.34 
L 354.6375 26.1 
" style="fill: none; stroke: #000000; stroke-width: 0.8; stroke-linejoin: miter; stroke-linecap: square"/>
   </g>
   <g id="patch_55">
    <path d="M 57.95 243.34 
L 354.6375 243.34 
" style="fill: none; stroke: #000000; stroke-width: 0.8; stroke-linejoin: miter; stroke-linecap: square"/>
   </g>
   <g id="patch_56">
    <path d="M 57.95 26.1 
L 354.6375 26.1 
" style="fill: none; stroke: #000000; stroke-width: 0.8; stroke-linejoin: miter; stroke-linecap: square"/>
   </g>
   <g id="text_12">
    <!-- In-Degree Dağılımı (log ölçek) -->
    <g transform="translate(116.749375 20.1) scale(0.12 -0.12)">
     <defs>
      <path id="DejaVuSans-20" transform="scale(0.015625)"/>
      <path id="DejaVuSans-11f" d="M 2906 1791 
Q 2906 2416 2648 2759 
Q 2391 3103 1925 3103 
Q 1463 3103 1205 2759 
Q 947 2416 947 1791 
Q 947 1169 1205 825 
Q 1463 481 1925 481 
Q 2391 481 2648 825 
Q 2906 1169 2906 1791 
z
M 3481 434 
Q 3481 -459 3084 -895 
Q 2688 -1331 1869 -1331 
Q 1566 -1331 1297 -1286 
Q 1028 -1241 775 -1147 
L 775 -588 
Q 1028 -725 1275 -790 
Q 1522 -856 1778 -856 
Q 2344 -856 2625 -561 
Q 2906 -266 2906 331 
L 2906 616 
Q 2728 306 2450 153 
Q 2172 0 1784 0 
Q 1141 0 747 490 
Q 353 981 353 1791 
Q 353 2603 747 3093 
Q 1141 3584 1784 3584 
Q 2172 3584 2450 3431 
Q 2728 3278 2906 2969 
L 2906 3500 
L 3481 3500 
L 3481 434 
z
M 1054 5025 
L 1423 5025 
Q 1457 4791 1608 4673 
Q 1760 4556 2032 4556 
Q 2301 4556 2451 4672 
Q 2601 4788 2641 5025 
L 3010 5025 
Q 2979 4578 2732 4353 
Q 2485 4128 2032 4128 
Q 1579 4128 1332 4353 
Q 1085 4578 1054 5025 
z
" transform="scale(0.015625)"/>
      <path id="DejaVuSans-131" d="M 603 3500 
L 1178 3500 
L 1178 0 
L 603 0 
L 603 3500 
z
M 891 3584 
L 891 3584 
z
" transform="scale(0.015625)"/>
      <path id="DejaVuSans-6c" d="M 603 4863 
L 1178 4863 
L 1178 0 
L 603 0 
L 603 4863 
z
" transform="scale(0.015625)"/>
      <path id="DejaVuSans-6d" d="M 3328 2828 
Q 3544 3216 3844 3400 
Q 4144 3584 4550 3584 
Q 5097 3584 5394 3201 
Q 5691 2819 5691 2113 
L 5691 0 
L 5113 0 
L 5113 2094 
Q 5113 2597 4934 2840 
Q 4756 3084 4391 3084 
Q 3944 3084 3684 2787 
Q 3425 2491 3425 1978 
L 3425 0 
L 2847 0 
L 2847 2094 
Q 2847 2600 2669 2842 
Q 2491 3084 2119 3084 
Q 1678 3084 1418 2786 
Q 1159 2488 1159 1978 
L 1159 0 
L 581 0 
L 581 3500 
L 1159 3500 
L 1159 2956 
Q 1356 3278 1631 3431 
Q 1906 3584 2284 3584 
Q 2666 3584 2933 3390 
Q 3200 3197 3328 2828 
z
" transform="scale(0.015625)"/>
      <path id="DejaVuSans-28" d="M 1984 4856 
Q 1566 4138 1362 3434 
Q 1159 2731 1159 2009 
Q 1159 1288 1364 580 
Q 1569 -128 1984 -844 
L 1484 -844 
Q 1016 -109 783 600 
Q 550 1309 550 2009 
Q 550 2706 781 3412 
Q 1013 4119 1484 4856 
L 1984 4856 
z
" transform="scale(0.015625)"/>
      <path id="DejaVuSans-6f" d="M 1959 3097 
Q 1497 3097 1228 2736 
Q 959 2375 959 1747 
Q 959 1119 1226 758 
Q 1494 397 1959 397 
Q 2419 397 2687 759 
Q 2956 1122 2956 1747 
Q 2956 2369 2687 2733 
Q 2419 3097 1959 3097 
z
M 1959 3584 
Q 2709 3584 3137 3096 
Q 3566 2609 3566 1747 
Q 3566 888 3137 398 
Q 2709 -91 1959 -91 
Q 1206 -91 779 398 
Q 353 888 353 1747 
Q 353 2609 779 3096 
Q 1206 3584 1959 3584 
z
" transform="scale(0.015625)"/>
      <path id="DejaVuSans-f6" d="M 1959 3097 
Q 1497 3097 1228 2736 
Q 959 2375 959 1747 
Q 959 1119 1226 758 
Q 1494 397 1959 397 
Q 2419 397 2687 759 
Q 2956 1122 2956 1747 
Q 2956 2369 2687 2733 
Q 2419 3097 1959 3097 
z
M 1959 3584 
Q 2709 3584 3137 3096 
Q 3566 2609 3566 1747 
Q 3566 888 3137 398 
Q 2709 -91 1959 -91 
Q 1206 -91 779 398 
Q 353 888 353 1747 
Q 353 2609 779 3096 
Q 1206 3584 1959 3584 
z
M 2254 4850 
L 2888 4850 
L 2888 4219 
L 2254 4219 
L 2254 4850 
z
M 1032 4850 
L 1666 4850 
L 1666 4219 
L 1032 4219 
L 1032 4850 
z
" transform="scale(0.015625)"/>
      <path id="DejaVuSans-e7" d="M 3122 3366 
L 3122 2828 
Q 2878 2963 2633 3030 
Q 2388 3097 2138 3097 
Q 1578 3097 1268 2742 
Q 959 2388 959 1747 
Q 959 1106 1268 751 
Q 1578 397 2138 397 
Q 2388 397 2633 464 
Q 2878 531 3122 666 
L 3122 134 
Q 2881 22 2623 -34 
Q 2366 -91 2075 -91 
Q 1284 -91 818 406 
Q 353 903 353 1747 
Q 353 2603 823 3093 
Q 1294 3584 2113 3584 
Q 2378 3584 2631 3529 
Q 2884 3475 3122 3366 
z
M 2311 0 
Q 2482 -194 2566 -358 
Q 2651 -522 2651 -672 
Q 2651 -950 2463 -1092 
Q 2276 -1234 1907 -1234 
Q 1764 -1234 1628 -1215 
Q 1492 -1197 1357 -1159 
L 1357 -750 
Q 1464 -803 1579 -826 
Q 1695 -850 1842 -850 
Q 2026 -850 2120 -775 
Q 2214 -700 2214 -556 
Q 2214 -463 2146 -327 
Q 2079 -191 1939 0 
L 2311 0 
z
" transform="scale(0.015625)"/>
      <path id="DejaVuSans-29" d="M 513 4856 
L 1013 4856 
Q 1481 4119 1714 3412 
Q 1947 2706 1947 2009 
Q 1947 1309 1714 600 
Q 1481 -109 1013 -844 
L 513 -844 
Q 928 -128 1133 580 
Q 1338 1288 1338 2009 
Q 1338 2731 1133 3434 
Q 928 4138 513 4856 
z
" transform="scale(0.015625)"/>
     </defs>
     <use xlink:href="#DejaVuSans-49"/>
     <use xlink:href="#DejaVuSans-6e" x="29.492188"/>
     <use xlink:href="#DejaVuSans-2d" x="92.871094"/>
     <use xlink:href="#DejaVuSans-44" x="128.955078"/>
     <use xlink:href="#DejaVuSans-65" x="205.957031"/>
     <use xlink:href="#DejaVuSans-67" x="267.480469"/>
     <use xlink:href="#DejaVuSans-72" x="330.957031"/>
     <use xlink:href="#DejaVuSans-65" x="369.820312"/>
     <use xlink:href="#DejaVuSans-65" x="431.34375"/>
     <use xlink:href="#DejaVuSans-20" x="492.867188"/>
     <use xlink:href="#DejaVuSans-44" x="524.654297"/>
     <use xlink:href="#DejaVuSans-61" x="601.65625"/>
     <use xlink:href="#DejaVuSans-11f" x="662.935547"/>
     <use xlink:href="#DejaVuSans-131" x="726.412109"/>
     <use xlink:href="#DejaVuSans-6c" x="754.195312"/>
     <use xlink:href="#DejaVuSans-131" x="781.978516"/>
     <use xlink:href="#DejaVuSans-6d" x="809.761719"/>
     <use xlink:href="#DejaVuSans-131" x="907.173828"/>
     <use xlink:href="#DejaVuSans-20" x="934.957031"/>
     <use xlink:href="#DejaVuSans-28" x="966.744141"/>
     <use xlink:href="#DejaVuSans-6c" x="1005.757812"/>
     <use xlink:href="#DejaVuSans-6f" x="1033.541016"/>
     <use xlink:href="#DejaVuSans-67" x="1094.722656"/>
     <use xlink:href="#DejaVuSans-20" x="1158.199219"/>
     <use xlink:href="#DejaVuSans-f6" x="1189.986328"/>
     <use xlink:href="#DejaVuSans-6c" x="1251.167969"/>
     <use xlink:href="#DejaVuSans-e7" x="1278.951172"/>
     <use xlink:href="#DejaVuSans-65" x="1333.931641"/>
     <use xlink:href="#DejaVuSans-6b" x="1395.455078"/>
     <use xlink:href="#DejaVuSans-29" x="1453.365234"/>
    </g>
   </g>
  </g>
  <g id="axes_2">
   <g id="patch_57">
    <path d="M 412.5125 243.34 
L 709.2 243.34 
L 709.2 26.1 
L 412.5125 26.1 
z
" style="fill: #ffffff"/>
   </g>
   <g id="patch_58">
    <path d="M 425.998295 243.34 
L 670.076532 243.34 
L 670.076532 36.444762 
L 425.998295 36.444762 
z
" clip-path="url(#pd7ed51d465)" style="fill: #7c3aed; opacity: 0.8"/>
   </g>
   <g id="patch_59">
    <path d="M 670.076532 243.34 
L 674.619113 243.34 
L 674.619113 176.73821 
L 670.076532 176.73821 
z
" clip-path="url(#pd7ed51d465)" style="fill: #7c3aed; opacity: 0.8"/>
   </g>
   <g id="patch_60">
    <path d="M 674.619113 243.34 
L 677.276352 243.34 
L 677.276352 230.234486 
L 674.619113 230.234486 
z
" clip-path="url(#pd7ed51d465)" style="fill: #7c3aed; opacity: 0.8"/>
   </g>
   <g id="patch_61">
    <path d="M 677.276352 243.34 
L 679.161694 243.34 
L 679.161694 223.359463 
L 677.276352 223.359463 
z
" clip-path="url(#pd7ed51d465)" style="fill: #7c3aed; opacity: 0.8"/>
   </g>
   <g id="patch_62">
    <path d="M 679.161694 243.34 
L 680.624078 243.34 
L 680.624078 233.242309 
L 679.161694 233.242309 
z
" clip-path="url(#pd7ed51d465)" style="fill: #7c3aed; opacity: 0.8"/>
   </g>
   <g id="patch_63">
    <path d="M 680.624078 243.34 
L 681.818933 243.34 
L 681.818933 241.191555 
L 680.624078 241.191555 
z
" clip-path="url(#pd7ed51d465)" style="fill: #7c3aed; opacity: 0.8"/>
   </g>
   <g id="patch_64">
    <path d="M 681.818933 243.34 
L 682.829169 243.34 
L 682.829169 239.902488 
L 681.818933 239.902488 
z
" clip-path="url(#pd7ed51d465)" style="fill: #7c3aed; opacity: 0.8"/>
   </g>
   <g id="patch_65">
    <path d="M 682.829169 243.34 
L 683.704274 243.34 
L 683.704274 241.191555 
L 682.829169 241.191555 
z
" clip-path="url(#pd7ed51d465)" style="fill: #7c3aed; opacity: 0.8"/>
   </g>
   <g id="patch_66">
    <path d="M 683.704274 243.34 
L 684.476172 243.34 
L 684.476172 242.480622 
L 683.704274 242.480622 
z
" clip-path="url(#pd7ed51d465)" style="fill: #7c3aed; opacity: 0.8"/>
   </g>
   <g id="patch_67">
    <path d="M 684.476172 243.34 
L 685.166659 243.34 
L 685.166659 242.265778 
L 684.476172 242.265778 
z
" clip-path="url(#pd7ed51d465)" style="fill: #7c3aed; opacity: 0.8"/>
   </g>
   <g id="patch_68">
    <path d="M 685.166659 243.34 
L 685.79128 243.34 
L 685.79128 242.910311 
L 685.166659 242.910311 
z
" clip-path="url(#pd7ed51d465)" style="fill: #7c3aed; opacity: 0.8"/>
   </g>
   <g id="patch_69">
    <path d="M 685.79128 243.34 
L 686.361514 243.34 
L 686.361514 243.125156 
L 685.79128 243.125156 
z
" clip-path="url(#pd7ed51d465)" style="fill: #7c3aed; opacity: 0.8"/>
   </g>
   <g id="patch_70">
    <path d="M 686.361514 243.34 
L 686.886078 243.34 
L 686.886078 242.480622 
L 686.361514 242.480622 
z
" clip-path="url(#pd7ed51d465)" style="fill: #7c3aed; opacity: 0.8"/>
   </g>
   <g id="patch_71">
    <path d="M 686.886078 243.34 
L 687.371749 243.34 
L 687.371749 242.695467 
L 686.886078 242.695467 
z
" clip-path="url(#pd7ed51d465)" style="fill: #7c3aed; opacity: 0.8"/>
   </g>
   <g id="patch_72">
    <path d="M 687.371749 243.34 
L 687.823898 243.34 
L 687.823898 243.125156 
L 687.371749 243.125156 
z
" clip-path="url(#pd7ed51d465)" style="fill: #7c3aed; opacity: 0.8"/>
   </g>
   <g id="patch_73">
    <path d="M 687.823898 243.34 
L 688.246855 243.34 
L 688.246855 243.125156 
L 687.823898 243.125156 
z
" clip-path="url(#pd7ed51d465)" style="fill: #7c3aed; opacity: 0.8"/>
   </g>
   <g id="patch_74">
    <path d="M 688.246855 243.34 
L 688.644162 243.34 
L 688.644162 242.910311 
L 688.246855 242.910311 
z
" clip-path="url(#pd7ed51d465)" style="fill: #7c3aed; opacity: 0.8"/>
   </g>
   <g id="patch_75">
    <path d="M 688.644162 243.34 
L 689.018753 243.34 
L 689.018753 243.34 
L 688.644162 243.34 
z
" clip-path="url(#pd7ed51d465)" style="fill: #7c3aed; opacity: 0.8"/>
   </g>
   <g id="patch_76">
    <path d="M 689.018753 243.34 
L 689.373086 243.34 
L 689.373086 243.125156 
L 689.018753 243.125156 
z
" clip-path="url(#pd7ed51d465)" style="fill: #7c3aed; opacity: 0.8"/>
   </g>
   <g id="patch_77">
    <path d="M 689.373086 243.34 
L 689.709239 243.34 
L 689.709239 243.34 
L 689.373086 243.34 
z
" clip-path="url(#pd7ed51d465)" style="fill: #7c3aed; opacity: 0.8"/>
   </g>
   <g id="patch_78">
    <path d="M 689.709239 243.34 
L 690.028989 243.34 
L 690.028989 243.125156 
L 689.709239 243.125156 
z
" clip-path="url(#pd7ed51d465)" style="fill: #7c3aed; opacity: 0.8"/>
   </g>
   <g id="patch_79">
    <path d="M 690.028989 243.34 
L 690.33386 243.34 
L 690.33386 243.34 
L 690.028989 243.34 
z
" clip-path="url(#pd7ed51d465)" style="fill: #7c3aed; opacity: 0.8"/>
   </g>
   <g id="patch_80">
    <path d="M 690.33386 243.34 
L 690.625178 243.34 
L 690.625178 242.910311 
L 690.33386 242.910311 
z
" clip-path="url(#pd7ed51d465)" style="fill: #7c3aed; opacity: 0.8"/>
   </g>
   <g id="patch_81">
    <path d="M 690.625178 243.34 
L 690.904094 243.34 
L 690.904094 242.050933 
L 690.625178 242.050933 
z
" clip-path="url(#pd7ed51d465)" style="fill: #7c3aed; opacity: 0.8"/>
   </g>
   <g id="patch_82">
    <path d="M 690.904094 243.34 
L 691.171624 243.34 
L 691.171624 241.4064 
L 690.904094 241.4064 
z
" clip-path="url(#pd7ed51d465)" style="fill: #7c3aed; opacity: 0.8"/>
   </g>
   <g id="patch_83">
    <path d="M 691.171624 243.34 
L 691.428659 243.34 
L 691.428659 243.125156 
L 691.171624 243.125156 
z
" clip-path="url(#pd7ed51d465)" style="fill: #7c3aed; opacity: 0.8"/>
   </g>
   <g id="patch_84">
    <path d="M 691.428659 243.34 
L 691.675993 243.34 
L 691.675993 243.125156 
L 691.428659 243.125156 
z
" clip-path="url(#pd7ed51d465)" style="fill: #7c3aed; opacity: 0.8"/>
   </g>
   <g id="patch_85">
    <path d="M 691.675993 243.34 
L 691.91433 243.34 
L 691.91433 243.125156 
L 691.675993 243.125156 
z
" clip-path="url(#pd7ed51d465)" style="fill: #7c3aed; opacity: 0.8"/>
   </g>
   <g id="patch_86">
    <path d="M 691.91433 243.34 
L 692.144303 243.34 
L 692.144303 243.34 
L 691.91433 243.34 
z
" clip-path="url(#pd7ed51d465)" style="fill: #7c3aed; opacity: 0.8"/>
   </g>
   <g id="patch_87">
    <path d="M 692.144303 243.34 
L 692.366479 243.34 
L 692.366479 243.34 
L 692.144303 243.34 
z
" clip-path="url(#pd7ed51d465)" style="fill: #7c3aed; opacity: 0.8"/>
   </g>
   <g id="patch_88">
    <path d="M 692.366479 243.34 
L 692.581369 243.34 
L 692.581369 243.34 
L 692.366479 243.34 
z
" clip-path="url(#pd7ed51d465)" style="fill: #7c3aed; opacity: 0.8"/>
   </g>
   <g id="patch_89">
    <path d="M 692.581369 243.34 
L 692.789436 243.34 
L 692.789436 243.34 
L 692.581369 243.34 
z
" clip-path="url(#pd7ed51d465)" style="fill: #7c3aed; opacity: 0.8"/>
   </g>
   <g id="patch_90">
    <path d="M 692.789436 243.34 
L 692.9911 243.34 
L 692.9911 243.125156 
L 692.789436 243.125156 
z
" clip-path="url(#pd7ed51d465)" style="fill: #7c3aed; opacity: 0.8"/>
   </g>
   <g id="patch_91">
    <path d="M 692.9911 243.34 
L 693.186743 243.34 
L 693.186743 243.125156 
L 692.9911 243.125156 
z
" clip-path="url(#pd7ed51d465)" style="fill: #7c3aed; opacity: 0.8"/>
   </g>
   <g id="patch_92">
    <path d="M 693.186743 243.34 
L 693.376714 243.34 
L 693.376714 243.34 
L 693.186743 243.34 
z
" clip-path="url(#pd7ed51d465)" style="fill: #7c3aed; opacity: 0.8"/>
   </g>
   <g id="patch_93">
    <path d="M 693.376714 243.34 
L 693.561334 243.34 
L 693.561334 243.34 
L 693.376714 243.34 
z
" clip-path="url(#pd7ed51d465)" style="fill: #7c3aed; opacity: 0.8"/>
   </g>
   <g id="patch_94">
    <path d="M 693.561334 243.34 
L 693.740895 243.34 
L 693.740895 243.34 
L 693.561334 243.34 
z
" clip-path="url(#pd7ed51d465)" style="fill: #7c3aed; opacity: 0.8"/>
   </g>
   <g id="patch_95">
    <path d="M 693.740895 243.34 
L 693.915667 243.34 
L 693.915667 243.34 
L 693.740895 243.34 
z
" clip-path="url(#pd7ed51d465)" style="fill: #7c3aed; opacity: 0.8"/>
   </g>
   <g id="patch_96">
    <path d="M 693.915667 243.34 
L 694.085898 243.34 
L 694.085898 243.34 
L 693.915667 243.34 
z
" clip-path="url(#pd7ed51d465)" style="fill: #7c3aed; opacity: 0.8"/>
   </g>
   <g id="patch_97">
    <path d="M 694.085898 243.34 
L 694.25182 243.34 
L 694.25182 243.34 
L 694.085898 243.34 
z
" clip-path="url(#pd7ed51d465)" style="fill: #7c3aed; opacity: 0.8"/>
   </g>
   <g id="patch_98">
    <path d="M 694.25182 243.34 
L 694.413645 243.34 
L 694.413645 243.34 
L 694.25182 243.34 
z
" clip-path="url(#pd7ed51d465)" style="fill: #7c3aed; opacity: 0.8"/>
   </g>
   <g id="patch_99">
    <path d="M 694.413645 243.34 
L 694.571569 243.34 
L 694.571569 243.34 
L 694.413645 243.34 
z
" clip-path="url(#pd7ed51d465)" style="fill: #7c3aed; opacity: 0.8"/>
   </g>
   <g id="patch_100">
    <path d="M 694.571569 243.34 
L 694.725778 243.34 
L 694.725778 243.125156 
L 694.571569 243.125156 
z
" clip-path="url(#pd7ed51d465)" style="fill: #7c3aed; opacity: 0.8"/>
   </g>
   <g id="patch_101">
    <path d="M 694.725778 243.34 
L 694.876441 243.34 
L 694.876441 243.34 
L 694.725778 243.34 
z
" clip-path="url(#pd7ed51d465)" style="fill: #7c3aed; opacity: 0.8"/>
   </g>
   <g id="patch_102">
    <path d="M 694.876441 243.34 
L 695.023718 243.34 
L 695.023718 243.34 
L 694.876441 243.34 
z
" clip-path="url(#pd7ed51d465)" style="fill: #7c3aed; opacity: 0.8"/>
   </g>
   <g id="patch_103">
    <path d="M 695.023718 243.34 
L 695.167758 243.34 
L 695.167758 243.34 
L 695.023718 243.34 
z
" clip-path="url(#pd7ed51d465)" style="fill: #7c3aed; opacity: 0.8"/>
   </g>
   <g id="patch_104">
    <path d="M 695.167758 243.34 
L 695.3087 243.34 
L 695.3087 243.34 
L 695.167758 243.34 
z
" clip-path="url(#pd7ed51d465)" style="fill: #7c3aed; opacity: 0.8"/>
   </g>
   <g id="patch_105">
    <path d="M 695.3087 243.34 
L 695.446675 243.34 
L 695.446675 243.34 
L 695.3087 243.34 
z
" clip-path="url(#pd7ed51d465)" style="fill: #7c3aed; opacity: 0.8"/>
   </g>
   <g id="patch_106">
    <path d="M 695.446675 243.34 
L 695.581805 243.34 
L 695.581805 243.34 
L 695.446675 243.34 
z
" clip-path="url(#pd7ed51d465)" style="fill: #7c3aed; opacity: 0.8"/>
   </g>
   <g id="patch_107">
    <path d="M 695.581805 243.34 
L 695.714205 243.34 
L 695.714205 243.125156 
L 695.581805 243.125156 
z
" clip-path="url(#pd7ed51d465)" style="fill: #7c3aed; opacity: 0.8"/>
   </g>
   <g id="matplotlib.axis_3">
    <g id="xtick_18">
     <g id="line2d_34">
      <path d="M 455.493302 243.34 
L 455.493302 26.1 
" clip-path="url(#pd7ed51d465)" style="fill: none; stroke-dasharray: 0.8,1.32; stroke-dashoffset: 0; stroke: #b0b0b0; stroke-width: 0.8"/>
     </g>
     <g id="line2d_35">
      <g>
       <use xlink:href="#m3c8a377da7" x="455.493302" y="243.34" style="stroke: #000000; stroke-width: 0.8"/>
      </g>
     </g>
     <g id="text_13">
      <!-- $\mathdefault{10^{-14}}$ -->
      <g transform="translate(441.543302 257.938437) scale(0.1 -0.1)">
       <defs>
        <path id="DejaVuSans-2212" d="M 678 2272 
L 4684 2272 
L 4684 1741 
L 678 1741 
L 678 2272 
z
" transform="scale(0.015625)"/>
       </defs>
       <use xlink:href="#DejaVuSans-31" transform="translate(0 0.684375)"/>
       <use xlink:href="#DejaVuSans-30" transform="translate(63.623047 0.684375)"/>
       <use xlink:href="#DejaVuSans-2212" transform="translate(128.203125 38.965625) scale(0.7)"/>
       <use xlink:href="#DejaVuSans-31" transform="translate(186.855469 38.965625) scale(0.7)"/>
       <use xlink:href="#DejaVuSans-34" transform="translate(231.391602 38.965625) scale(0.7)"/>
      </g>
     </g>
    </g>
    <g id="xtick_19">
     <g id="line2d_36">
      <path d="M 500.763682 243.34 
L 500.763682 26.1 
" clip-path="url(#pd7ed51d465)" style="fill: none; stroke-dasharray: 0.8,1.32; stroke-dashoffset: 0; stroke: #b0b0b0; stroke-width: 0.8"/>
     </g>
     <g id="line2d_37">
      <g>
       <use xlink:href="#m3c8a377da7" x="500.763682" y="243.34" style="stroke: #000000; stroke-width: 0.8"/>
      </g>
     </g>
     <g id="text_14">
      <!-- $\mathdefault{10^{-11}}$ -->
      <g transform="translate(486.813682 257.938437) scale(0.1 -0.1)">
       <use xlink:href="#DejaVuSans-31" transform="translate(0 0.684375)"/>
       <use xlink:href="#DejaVuSans-30" transform="translate(63.623047 0.684375)"/>
       <use xlink:href="#DejaVuSans-2212" transform="translate(128.203125 38.965625) scale(0.7)"/>
       <use xlink:href="#DejaVuSans-31" transform="translate(186.855469 38.965625) scale(0.7)"/>
       <use xlink:href="#DejaVuSans-31" transform="translate(231.391602 38.965625) scale(0.7)"/>
      </g>
     </g>
    </g>
    <g id="xtick_20">
     <g id="line2d_38">
      <path d="M 546.034061 243.34 
L 546.034061 26.1 
" clip-path="url(#pd7ed51d465)" style="fill: none; stroke-dasharray: 0.8,1.32; stroke-dashoffset: 0; stroke: #b0b0b0; stroke-width: 0.8"/>
     </g>
     <g id="line2d_39">
      <g>
       <use xlink:href="#m3c8a377da7" x="546.034061" y="243.34" style="stroke: #000000; stroke-width: 0.8"/>
      </g>
     </g>
     <g id="text_15">
      <!-- $\mathdefault{10^{-8}}$ -->
      <g transform="translate(534.284061 257.938437) scale(0.1 -0.1)">
       <use xlink:href="#DejaVuSans-31" transform="translate(0 0.765625)"/>
       <use xlink:href="#DejaVuSans-30" transform="translate(63.623047 0.765625)"/>
       <use xlink:href="#DejaVuSans-2212" transform="translate(128.203125 39.046875) scale(0.7)"/>
       <use xlink:href="#DejaVuSans-38" transform="translate(186.855469 39.046875) scale(0.7)"/>
      </g>
     </g>
    </g>
    <g id="xtick_21">
     <g id="line2d_40">
      <path d="M 591.304441 243.34 
L 591.304441 26.1 
" clip-path="url(#pd7ed51d465)" style="fill: none; stroke-dasharray: 0.8,1.32; stroke-dashoffset: 0; stroke: #b0b0b0; stroke-width: 0.8"/>
     </g>
     <g id="line2d_41">
      <g>
       <use xlink:href="#m3c8a377da7" x="591.304441" y="243.34" style="stroke: #000000; stroke-width: 0.8"/>
      </g>
     </g>
     <g id="text_16">
      <!-- $\mathdefault{10^{-5}}$ -->
      <g transform="translate(579.554441 257.938437) scale(0.1 -0.1)">
       <defs>
        <path id="DejaVuSans-35" d="M 691 4666 
L 3169 4666 
L 3169 4134 
L 1269 4134 
L 1269 2991 
Q 1406 3038 1543 3061 
Q 1681 3084 1819 3084 
Q 2600 3084 3056 2656 
Q 3513 2228 3513 1497 
Q 3513 744 3044 326 
Q 2575 -91 1722 -91 
Q 1428 -91 1123 -41 
Q 819 9 494 109 
L 494 744 
Q 775 591 1075 516 
Q 1375 441 1709 441 
Q 2250 441 2565 725 
Q 2881 1009 2881 1497 
Q 2881 1984 2565 2268 
Q 2250 2553 1709 2553 
Q 1456 2553 1204 2497 
Q 953 2441 691 2322 
L 691 4666 
z
" transform="scale(0.015625)"/>
       </defs>
       <use xlink:href="#DejaVuSans-31" transform="translate(0 0.684375)"/>
       <use xlink:href="#DejaVuSans-30" transform="translate(63.623047 0.684375)"/>
       <use xlink:href="#DejaVuSans-2212" transform="translate(128.203125 38.965625) scale(0.7)"/>
       <use xlink:href="#DejaVuSans-35" transform="translate(186.855469 38.965625) scale(0.7)"/>
      </g>
     </g>
    </g>
    <g id="xtick_22">
     <g id="line2d_42">
      <path d="M 636.57482 243.34 
L 636.57482 26.1 
" clip-path="url(#pd7ed51d465)" style="fill: none; stroke-dasharray: 0.8,1.32; stroke-dashoffset: 0; stroke: #b0b0b0; stroke-width: 0.8"/>
     </g>
     <g id="line2d_43">
      <g>
       <use xlink:href="#m3c8a377da7" x="636.57482" y="243.34" style="stroke: #000000; stroke-width: 0.8"/>
      </g>
     </g>
     <g id="text_17">
      <!-- $\mathdefault{10^{-2}}$ -->
      <g transform="translate(624.82482 257.938437) scale(0.1 -0.1)">
       <use xlink:href="#DejaVuSans-31" transform="translate(0 0.765625)"/>
       <use xlink:href="#DejaVuSans-30" transform="translate(63.623047 0.765625)"/>
       <use xlink:href="#DejaVuSans-2212" transform="translate(128.203125 39.046875) scale(0.7)"/>
       <use xlink:href="#DejaVuSans-32" transform="translate(186.855469 39.046875) scale(0.7)"/>
      </g>
     </g>
    </g>
    <g id="xtick_23">
     <g id="line2d_44">
      <path d="M 681.8452 243.34 
L 681.8452 26.1 
" clip-path="url(#pd7ed51d465)" style="fill: none; stroke-dasharray: 0.8,1.32; stroke-dashoffset: 0; stroke: #b0b0b0; stroke-width: 0.8"/>
     </g>
     <g id="line2d_45">
      <g>
       <use xlink:href="#m3c8a377da7" x="681.8452" y="243.34" style="stroke: #000000; stroke-width: 0.8"/>
      </g>
     </g>
     <g id="text_18">
      <!-- $\mathdefault{10^{1}}$ -->
      <g transform="translate(673.0452 257.938437) scale(0.1 -0.1)">
       <use xlink:href="#DejaVuSans-31" transform="translate(0 0.684375)"/>
       <use xlink:href="#DejaVuSans-30" transform="translate(63.623047 0.684375)"/>
       <use xlink:href="#DejaVuSans-31" transform="translate(128.203125 38.965625) scale(0.7)"/>
      </g>
     </g>
    </g>
    <g id="text_19">
     <!-- Out-Degree -->
     <g transform="translate(531.790625 271.616562) scale(0.1 -0.1)">
      <defs>
       <path id="DejaVuSans-4f" d="M 2522 4238 
Q 1834 4238 1429 3725 
Q 1025 3213 1025 2328 
Q 1025 1447 1429 934 
Q 1834 422 2522 422 
Q 3209 422 3611 934 
Q 4013 1447 4013 2328 
Q 4013 3213 3611 3725 
Q 3209 4238 2522 4238 
z
M 2522 4750 
Q 3503 4750 4090 4092 
Q 4678 3434 4678 2328 
Q 4678 1225 4090 567 
Q 3503 -91 2522 -91 
Q 1538 -91 948 565 
Q 359 1222 359 2328 
Q 359 3434 948 4092 
Q 1538 4750 2522 4750 
z
" transform="scale(0.015625)"/>
       <path id="DejaVuSans-75" d="M 544 1381 
L 544 3500 
L 1119 3500 
L 1119 1403 
Q 1119 906 1312 657 
Q 1506 409 1894 409 
Q 2359 409 2629 706 
Q 2900 1003 2900 1516 
L 2900 3500 
L 3475 3500 
L 3475 0 
L 2900 0 
L 2900 538 
Q 2691 219 2414 64 
Q 2138 -91 1772 -91 
Q 1169 -91 856 284 
Q 544 659 544 1381 
z
M 1991 3584 
L 1991 3584 
z
" transform="scale(0.015625)"/>
       <path id="DejaVuSans-74" d="M 1172 4494 
L 1172 3500 
L 2356 3500 
L 2356 3053 
L 1172 3053 
L 1172 1153 
Q 1172 725 1289 603 
Q 1406 481 1766 481 
L 2356 481 
L 2356 0 
L 1766 0 
Q 1100 0 847 248 
Q 594 497 594 1153 
L 594 3053 
L 172 3053 
L 172 3500 
L 594 3500 
L 594 4494 
L 1172 4494 
z
" transform="scale(0.015625)"/>
      </defs>
      <use xlink:href="#DejaVuSans-4f"/>
      <use xlink:href="#DejaVuSans-75" x="78.710938"/>
      <use xlink:href="#DejaVuSans-74" x="142.089844"/>
      <use xlink:href="#DejaVuSans-2d" x="181.298828"/>
      <use xlink:href="#DejaVuSans-44" x="217.382812"/>
      <use xlink:href="#DejaVuSans-65" x="294.384766"/>
      <use xlink:href="#DejaVuSans-67" x="355.908203"/>
      <use xlink:href="#DejaVuSans-72" x="419.384766"/>
      <use xlink:href="#DejaVuSans-65" x="458.248047"/>
      <use xlink:href="#DejaVuSans-65" x="519.771484"/>
     </g>
    </g>
   </g>
   <g id="matplotlib.axis_4">
    <g id="ytick_8">
     <g id="line2d_46">
      <path d="M 412.5125 243.34 
L 709.2 243.34 
" clip-path="url(#pd7ed51d465)" style="fill: none; stroke-dasharray: 0.8,1.32; stroke-dashoffset: 0; stroke: #b0b0b0; stroke-width: 0.8"/>
     </g>
     <g id="line2d_47">
      <g>
       <use xlink:href="#md7d03a8603" x="412.5125" y="243.34" style="stroke: #000000; stroke-width: 0.8"/>
      </g>
     </g>
     <g id="text_20">
      <!-- 0 -->
      <g transform="translate(399.15 247.139219) scale(0.1 -0.1)">
       <use xlink:href="#DejaVuSans-30"/>
      </g>
     </g>
    </g>
    <g id="ytick_9">
     <g id="line2d_48">
      <path d="M 412.5125 200.371103 
L 709.2 200.371103 
" clip-path="url(#pd7ed51d465)" style="fill: none; stroke-dasharray: 0.8,1.32; stroke-dashoffset: 0; stroke: #b0b0b0; stroke-width: 0.8"/>
     </g>
     <g id="line2d_49">
      <g>
       <use xlink:href="#md7d03a8603" x="412.5125" y="200.371103" style="stroke: #000000; stroke-width: 0.8"/>
      </g>
     </g>
     <g id="text_21">
      <!-- 200 -->
      <g transform="translate(386.425 204.170322) scale(0.1 -0.1)">
       <use xlink:href="#DejaVuSans-32"/>
       <use xlink:href="#DejaVuSans-30" x="63.623047"/>
       <use xlink:href="#DejaVuSans-30" x="127.246094"/>
      </g>
     </g>
    </g>
    <g id="ytick_10">
     <g id="line2d_50">
      <path d="M 412.5125 157.402206 
L 709.2 157.402206 
" clip-path="url(#pd7ed51d465)" style="fill: none; stroke-dasharray: 0.8,1.32; stroke-dashoffset: 0; stroke: #b0b0b0; stroke-width: 0.8"/>
     </g>
     <g id="line2d_51">
      <g>
       <use xlink:href="#md7d03a8603" x="412.5125" y="157.402206" style="stroke: #000000; stroke-width: 0.8"/>
      </g>
     </g>
     <g id="text_22">
      <!-- 400 -->
      <g transform="translate(386.425 161.201425) scale(0.1 -0.1)">
       <use xlink:href="#DejaVuSans-34"/>
       <use xlink:href="#DejaVuSans-30" x="63.623047"/>
       <use xlink:href="#DejaVuSans-30" x="127.246094"/>
      </g>
     </g>
    </g>
    <g id="ytick_11">
     <g id="line2d_52">
      <path d="M 412.5125 114.43331 
L 709.2 114.43331 
" clip-path="url(#pd7ed51d465)" style="fill: none; stroke-dasharray: 0.8,1.32; stroke-dashoffset: 0; stroke: #b0b0b0; stroke-width: 0.8"/>
     </g>
     <g id="line2d_53">
      <g>
       <use xlink:href="#md7d03a8603" x="412.5125" y="114.43331" style="stroke: #000000; stroke-width: 0.8"/>
      </g>
     </g>
     <g id="text_23">
      <!-- 600 -->
      <g transform="translate(386.425 118.232528) scale(0.1 -0.1)">
       <use xlink:href="#DejaVuSans-36"/>
       <use xlink:href="#DejaVuSans-30" x="63.623047"/>
       <use xlink:href="#DejaVuSans-30" x="127.246094"/>
      </g>
     </g>
    </g>
    <g id="ytick_12">
     <g id="line2d_54">
      <path d="M 412.5125 71.464413 
L 709.2 71.464413 
" clip-path="url(#pd7ed51d465)" style="fill: none; stroke-dasharray: 0.8,1.32; stroke-dashoffset: 0; stroke: #b0b0b0; stroke-width: 0.8"/>
     </g>
     <g id="line2d_55">
      <g>
       <use xlink:href="#md7d03a8603" x="412.5125" y="71.464413" style="stroke: #000000; stroke-width: 0.8"/>
      </g>
     </g>
     <g id="text_24">
      <!-- 800 -->
      <g transform="translate(386.425 75.263632) scale(0.1 -0.1)">
       <use xlink:href="#DejaVuSans-38"/>
       <use xlink:href="#DejaVuSans-30" x="63.623047"/>
       <use xlink:href="#DejaVuSans-30" x="127.246094"/>
      </g>
     </g>
    </g>
    <g id="ytick_13">
     <g id="line2d_56">
      <path d="M 412.5125 28.495516 
L 709.2 28.495516 
" clip-path="url(#pd7ed51d465)" style="fill: none; stroke-dasharray: 0.8,1.32; stroke-dashoffset: 0; stroke: #b0b0b0; stroke-width: 0.8"/>
     </g>
     <g id="line2d_57">
      <g>
       <use xlink:href="#md7d03a8603" x="412.5125" y="28.495516" style="stroke: #000000; stroke-width: 0.8"/>
      </g>
     </g>
     <g id="text_25">
      <!-- 1000 -->
      <g transform="translate(380.0625 32.294735) scale(0.1 -0.1)">
       <use xlink:href="#DejaVuSans-31"/>
       <use xlink:href="#DejaVuSans-30" x="63.623047"/>
       <use xlink:href="#DejaVuSans-30" x="127.246094"/>
       <use xlink:href="#DejaVuSans-30" x="190.869141"/>
      </g>
     </g>
    </g>
    <g id="text_26">
     <!-- Frekans -->
     <g transform="translate(373.982812 153.898125) rotate(-90) scale(0.1 -0.1)">
      <use xlink:href="#DejaVuSans-46"/>
      <use xlink:href="#DejaVuSans-72" x="50.269531"/>
      <use xlink:href="#DejaVuSans-65" x="89.132812"/>
      <use xlink:href="#DejaVuSans-6b" x="150.65625"/>
      <use xlink:href="#DejaVuSans-61" x="206.816406"/>
      <use xlink:href="#DejaVuSans-6e" x="268.095703"/>
      <use xlink:href="#DejaVuSans-73" x="331.474609"/>
     </g>
    </g>
   </g>
   <g id="patch_108">
    <path d="M 412.5125 243.34 
L 412.5125 26.1 
" style="fill: none; stroke: #000000; stroke-width: 0.8; stroke-linejoin: miter; stroke-linecap: square"/>
   </g>
   <g id="patch_109">
    <path d="M 709.2 243.34 
L 709.2 26.1 
" style="fill: none; stroke: #000000; stroke-width: 0.8; stroke-linejoin: miter; stroke-linecap: square"/>
   </g>
   <g id="patch_110">
    <path d="M 412.5125 243.34 
L 709.2 243.34 
" style="fill: none; stroke: #000000; stroke-width: 0.8; stroke-linejoin: miter; stroke-linecap: square"/>
   </g>
   <g id="patch_111">
    <path d="M 412.5125 26.1 
L 709.2 26.1 
" style="fill: none; stroke: #000000; stroke-width: 0.8; stroke-linejoin: miter; stroke-linecap: square"/>
   </g>
   <g id="text_27">
    <!-- Out-Degree Dağılımı (log ölçek) -->
    <g transform="translate(466.006562 20.1) scale(0.12 -0.12)">
     <use xlink:href="#DejaVuSans-4f"/>
     <use xlink:href="#DejaVuSans-75" x="78.710938"/>
     <use xlink:href="#DejaVuSans-74" x="142.089844"/>
     <use xlink:href="#DejaVuSans-2d" x="181.298828"/>
     <use xlink:href="#DejaVuSans-44" x="217.382812"/>
     <use xlink:href="#DejaVuSans-65" x="294.384766"/>
     <use xlink:href="#DejaVuSans-67" x="355.908203"/>
     <use xlink:href="#DejaVuSans-72" x="419.384766"/>
     <use xlink:href="#DejaVuSans-65" x="458.248047"/>
     <use xlink:href="#DejaVuSans-65" x="519.771484"/>
     <use xlink:href="#DejaVuSans-20" x="581.294922"/>
     <use xlink:href="#DejaVuSans-44" x="613.082031"/>
     <use xlink:href="#DejaVuSans-61" x="690.083984"/>
     <use xlink:href="#DejaVuSans-11f" x="751.363281"/>
     <use xlink:href="#DejaVuSans-131" x="814.839844"/>
     <use xlink:href="#DejaVuSans-6c" x="842.623047"/>
     <use xlink:href="#DejaVuSans-131" x="870.40625"/>
     <use xlink:href="#DejaVuSans-6d" x="898.189453"/>
     <use xlink:href="#DejaVuSans-131" x="995.601562"/>
     <use xlink:href="#DejaVuSans-20" x="1023.384766"/>
     <use xlink:href="#DejaVuSans-28" x="1055.171875"/>
     <use xlink:href="#DejaVuSans-6c" x="1094.185547"/>
     <use xlink:href="#DejaVuSans-6f" x="1121.96875"/>
     <use xlink:href="#DejaVuSans-67" x="1183.150391"/>
     <use xlink:href="#DejaVuSans-20" x="1246.626953"/>
     <use xlink:href="#DejaVuSans-f6" x="1278.414062"/>
     <use xlink:href="#DejaVuSans-6c" x="1339.595703"/>
     <use xlink:href="#DejaVuSans-e7" x="1367.378906"/>
     <use xlink:href="#DejaVuSans-65" x="1422.359375"/>
     <use xlink:href="#DejaVuSans-6b" x="1483.882812"/>
     <use xlink:href="#DejaVuSans-29" x="1541.792969"/>
    </g>
   </g>
  </g>
 </g>
 <defs>
  <clipPath id="pe424b16234">
   <rect x="57.95" y="26.1" width="296.6875" height="217.24"/>
  </clipPath>
  <clipPath id="pd7ed51d465">
   <rect x="412.5125" y="26.1" width="296.6875" height="217.24"/>
  </clipPath>
 </defs>
</svg>
