<?xml version="1.0" encoding="utf-8" standalone="no"?>
<!DOCTYPE svg PUBLIC "-//W3C//DTD SVG 1.1//EN"
  "http://www.w3.org/Graphics/SVG/1.1/DTD/svg11.dtd">
<svg xmlns:xlink="http://www.w3.org/1999/xlink" width="720pt" height="360pt" viewBox="0 0 720 360" xmlns="http://www.w3.org/2000/svg" version="1.1">
 <metadata>
  <rdf:RDF xmlns:dc="http://purl.org/dc/elements/1.1/" xmlns:cc="http://creativecommons.org/ns#" xmlns:rdf="http://www.w3.org/1999/02/22-rdf-syntax-ns#">
   <cc:Work>
    <dc:type rdf:resource="http://purl.org/dc/dcmitype/StillImage"/>
    <dc:date>2025-11-24T10:19:42.638062</dc:date>
    <dc:format>image/svg+xml</dc:format>
    <dc:creator>
     <cc:Agent>
      <dc:title>Matplotlib v3.9.4, https://matplotlib.org/</dc:title>
     </cc:Agent>
    </dc:creator>
   </cc:Work>
  </rdf:RDF>
 </metadata>
 <defs>
  <style type="text/css">*{stroke-linejoin: round; stroke-linecap: butt}</style>
 </defs>
 <g id="figure_1">
  <g id="patch_1">
   <path d="M 0 360 
L 720 360 
L 720 0 
L 0 0 
z
" style="fill: #ffffff"/>
  </g>
  <g id="axes_1">
   <g id="patch_2">
    <path d="M 157.9 331.4 
L 709.2 331.4 
L 709.2 25.8 
L 157.9 25.8 
z
" style="fill: #ffffff"/>
   </g>
   <g id="patch_3">
    <path d="M 157.9 39.690909 
L 682.947619 39.690909 
L 682.947619 62.369944 
L 157.9 62.369944 
z
" clip-path="url(#p531a01e675)" style="fill: #60a5fa; opacity: 0.85"/>
   </g>
   <g id="patch_4">
    <path d="M 157.9 68.039703 
L 382.54724 68.039703 
L 382.54724 90.718738 
L 157.9 90.718738 
z
" clip-path="url(#p531a01e675)" style="fill: #60a5fa; opacity: 0.85"/>
   </g>
   <g id="patch_5">
    <path d="M 157.9 96.388497 
L 376.125638 96.388497 
L 376.125638 119.067532 
L 157.9 119.067532 
z
" clip-path="url(#p531a01e675)" style="fill: #60a5fa; opacity: 0.85"/>
   </g>
   <g id="patch_6">
    <path d="M 157.9 124.737291 
L 371.227805 124.737291 
L 371.227805 147.416327 
L 157.9 147.416327 
z
" clip-path="url(#p531a01e675)" style="fill: #60a5fa; opacity: 0.85"/>
   </g>
   <g id="patch_7">
    <path d="M 157.9 153.086085 
L 354.248654 153.086085 
L 354.248654 175.765121 
L 157.9 175.765121 
z
" clip-path="url(#p531a01e675)" style="fill: #60a5fa; opacity: 0.85"/>
   </g>
   <g id="patch_8">
    <path d="M 157.9 181.434879 
L 265.65231 181.434879 
L 265.65231 204.113915 
L 157.9 204.113915 
z
" clip-path="url(#p531a01e675)" style="fill: #60a5fa; opacity: 0.85"/>
   </g>
   <g id="patch_9">
    <path d="M 157.9 209.783673 
L 255.856645 209.783673 
L 255.856645 232.462709 
L 157.9 232.462709 
z
" clip-path="url(#p531a01e675)" style="fill: #60a5fa; opacity: 0.85"/>
   </g>
   <g id="patch_10">
    <path d="M 157.9 238.132468 
L 249.326202 238.132468 
L 249.326202 260.811503 
L 157.9 260.811503 
z
" clip-path="url(#p531a01e675)" style="fill: #60a5fa; opacity: 0.85"/>
   </g>
   <g id="patch_11">
    <path d="M 157.9 266.481262 
L 223.20443 266.481262 
L 223.20443 289.160297 
L 157.9 289.160297 
z
" clip-path="url(#p531a01e675)" style="fill: #60a5fa; opacity: 0.85"/>
   </g>
   <g id="patch_12">
    <path d="M 157.9 294.830056 
L 219.939209 294.830056 
L 219.939209 317.509091 
L 157.9 317.509091 
z
" clip-path="url(#p531a01e675)" style="fill: #60a5fa; opacity: 0.85"/>
   </g>
   <g id="matplotlib.axis_1">
    <g id="xtick_1">
     <g id="line2d_1">
      <path d="M 157.9 331.4 
L 157.9 25.8 
" clip-path="url(#p531a01e675)" style="fill: none; stroke-dasharray: 0.8,1.32; stroke-dashoffset: 0; stroke: #b0b0b0; stroke-width: 0.8"/>
     </g>
     <g id="line2d_2">
      <defs>
       <path id="ma628634115" d="M 0 0 
L 0 3.5 
" style="stroke: #000000; stroke-width: 0.8"/>
      </defs>
      <g>
       <use xlink:href="#ma628634115" x="157.9" y="331.4" style="stroke: #000000; stroke-width: 0.8"/>
      </g>
     </g>
     <g id="text_1">
      <!-- 0.0000 -->
      <g transform="translate(140.404688 345.998438) scale(0.1 -0.1)">
       <defs>
        <path id="DejaVuSans-30" d="M 2034 4250 
Q 1547 4250 1301 3770 
Q 1056 3291 1056 2328 
Q 1056 1369 1301 889 
Q 1547 409 2034 409 
Q 2525 409 2770 889 
Q 3016 1369 3016 2328 
Q 3016 3291 2770 3770 
Q 2525 4250 2034 4250 
z
M 2034 4750 
Q 2819 4750 3233 4129 
Q 3647 3509 3647 2328 
Q 3647 1150 3233 529 
Q 2819 -91 2034 -91 
Q 1250 -91 836 529 
Q 422 1150 422 2328 
Q 422 3509 836 4129 
Q 1250 4750 2034 4750 
z
" transform="scale(0.015625)"/>
        <path id="DejaVuSans-2e" d="M 684 794 
L 1344 794 
L 1344 0 
L 684 0 
L 684 794 
z
" transform="scale(0.015625)"/>
       </defs>
       <use xlink:href="#DejaVuSans-30"/>
       <use xlink:href="#DejaVuSans-2e" x="63.623047"/>
       <use xlink:href="#DejaVuSans-30" x="95.410156"/>
       <use xlink:href="#DejaVuSans-30" x="159.033203"/>
       <use xlink:href="#DejaVuSans-30" x="222.65625"/>
       <use xlink:href="#DejaVuSans-30" x="286.279297"/>
      </g>
     </g>
    </g>
    <g id="xtick_2">
     <g id="line2d_3">
      <path d="M 256.052645 331.4 
L 256.052645 25.8 
" clip-path="url(#p531a01e675)" style="fill: none; stroke-dasharray: 0.8,1.32; stroke-dashoffset: 0; stroke: #b0b0b0; stroke-width: 0.8"/>
     </g>
     <g id="line2d_4">
      <g>
       <use xlink:href="#ma628634115" x="256.052645" y="331.4" style="stroke: #000000; stroke-width: 0.8"/>
      </g>
     </g>
     <g id="text_2">
      <!-- 0.0005 -->
      <g transform="translate(238.557333 345.998438) scale(0.1 -0.1)">
       <defs>
        <path id="DejaVuSans-35" d="M 691 4666 
L 3169 4666 
L 3169 4134 
L 1269 4134 
L 1269 2991 
Q 1406 3038 1543 3061 
Q 1681 3084 1819 3084 
Q 2600 3084 3056 2656 
Q 3513 2228 3513 1497 
Q 3513 744 3044 326 
Q 2575 -91 1722 -91 
Q 1428 -91 1123 -41 
Q 819 9 494 109 
L 494 744 
Q 775 591 1075 516 
Q 1375 441 1709 441 
Q 2250 441 2565 725 
Q 2881 1009 2881 1497 
Q 2881 1984 2565 2268 
Q 2250 2553 1709 2553 
Q 1456 2553 1204 2497 
Q 953 2441 691 2322 
L 691 4666 
z
" transform="scale(0.015625)"/>
       </defs>
       <use xlink:href="#DejaVuSans-30"/>
       <use xlink:href="#DejaVuSans-2e" x="63.623047"/>
       <use xlink:href="#DejaVuSans-30" x="95.410156"/>
       <use xlink:href="#DejaVuSans-30" x="159.033203"/>
       <use xlink:href="#DejaVuSans-30" x="222.65625"/>
       <use xlink:href="#DejaVuSans-35" x="286.279297"/>
      </g>
     </g>
    </g>
    <g id="xtick_3">
     <g id="line2d_5">
      <path d="M 354.205291 331.4 
L 354.205291 25.8 
" clip-path="url(#p531a01e675)" style="fill: none; stroke-dasharray: 0.8,1.32; stroke-dashoffset: 0; stroke: #b0b0b0; stroke-width: 0.8"/>
     </g>
     <g id="line2d_6">
      <g>
       <use xlink:href="#ma628634115" x="354.205291" y="331.4" style="stroke: #000000; stroke-width: 0.8"/>
      </g>
     </g>
     <g id="text_3">
      <!-- 0.0010 -->
      <g transform="translate(336.709978 345.998438) scale(0.1 -0.1)">
       <defs>
        <path id="DejaVuSans-31" d="M 794 531 
L 1825 531 
L 1825 4091 
L 703 3866 
L 703 4441 
L 1819 4666 
L 2450 4666 
L 2450 531 
L 3481 531 
L 3481 0 
L 794 0 
L 794 531 
z
" transform="scale(0.015625)"/>
       </defs>
       <use xlink:href="#DejaVuSans-30"/>
       <use xlink:href="#DejaVuSans-2e" x="63.623047"/>
       <use xlink:href="#DejaVuSans-30" x="95.410156"/>
       <use xlink:href="#DejaVuSans-30" x="159.033203"/>
       <use xlink:href="#DejaVuSans-31" x="222.65625"/>
       <use xlink:href="#DejaVuSans-30" x="286.279297"/>
      </g>
     </g>
    </g>
    <g id="xtick_4">
     <g id="line2d_7">
      <path d="M 452.357936 331.4 
L 452.357936 25.8 
" clip-path="url(#p531a01e675)" style="fill: none; stroke-dasharray: 0.8,1.32; stroke-dashoffset: 0; stroke: #b0b0b0; stroke-width: 0.8"/>
     </g>
     <g id="line2d_8">
      <g>
       <use xlink:href="#ma628634115" x="452.357936" y="331.4" style="stroke: #000000; stroke-width: 0.8"/>
      </g>
     </g>
     <g id="text_4">
      <!-- 0.0015 -->
      <g transform="translate(434.862624 345.998438) scale(0.1 -0.1)">
       <use xlink:href="#DejaVuSans-30"/>
       <use xlink:href="#DejaVuSans-2e" x="63.623047"/>
       <use xlink:href="#DejaVuSans-30" x="95.410156"/>
       <use xlink:href="#DejaVuSans-30" x="159.033203"/>
       <use xlink:href="#DejaVuSans-31" x="222.65625"/>
       <use xlink:href="#DejaVuSans-35" x="286.279297"/>
      </g>
     </g>
    </g>
    <g id="xtick_5">
     <g id="line2d_9">
      <path d="M 550.510581 331.4 
L 550.510581 25.8 
" clip-path="url(#p531a01e675)" style="fill: none; stroke-dasharray: 0.8,1.32; stroke-dashoffset: 0; stroke: #b0b0b0; stroke-width: 0.8"/>
     </g>
     <g id="line2d_10">
      <g>
       <use xlink:href="#ma628634115" x="550.510581" y="331.4" style="stroke: #000000; stroke-width: 0.8"/>
      </g>
     </g>
     <g id="text_5">
      <!-- 0.0020 -->
      <g transform="translate(533.015269 345.998438) scale(0.1 -0.1)">
       <defs>
        <path id="DejaVuSans-32" d="M 1228 531 
L 3431 531 
L 3431 0 
L 469 0 
L 469 531 
Q 828 903 1448 1529 
Q 2069 2156 2228 2338 
Q 2531 2678 2651 2914 
Q 2772 3150 2772 3378 
Q 2772 3750 2511 3984 
Q 2250 4219 1831 4219 
Q 1534 4219 1204 4116 
Q 875 4013 500 3803 
L 500 4441 
Q 881 4594 1212 4672 
Q 1544 4750 1819 4750 
Q 2544 4750 2975 4387 
Q 3406 4025 3406 3419 
Q 3406 3131 3298 2873 
Q 3191 2616 2906 2266 
Q 2828 2175 2409 1742 
Q 1991 1309 1228 531 
z
" transform="scale(0.015625)"/>
       </defs>
       <use xlink:href="#DejaVuSans-30"/>
       <use xlink:href="#DejaVuSans-2e" x="63.623047"/>
       <use xlink:href="#DejaVuSans-30" x="95.410156"/>
       <use xlink:href="#DejaVuSans-30" x="159.033203"/>
       <use xlink:href="#DejaVuSans-32" x="222.65625"/>
       <use xlink:href="#DejaVuSans-30" x="286.279297"/>
      </g>
     </g>
    </g>
    <g id="xtick_6">
     <g id="line2d_11">
      <path d="M 648.663227 331.4 
L 648.663227 25.8 
" clip-path="url(#p531a01e675)" style="fill: none; stroke-dasharray: 0.8,1.32; stroke-dashoffset: 0; stroke: #b0b0b0; stroke-width: 0.8"/>
     </g>
     <g id="line2d_12">
      <g>
       <use xlink:href="#ma628634115" x="648.663227" y="331.4" style="stroke: #000000; stroke-width: 0.8"/>
      </g>
     </g>
     <g id="text_6">
      <!-- 0.0025 -->
      <g transform="translate(631.167914 345.998438) scale(0.1 -0.1)">
       <use xlink:href="#DejaVuSans-30"/>
       <use xlink:href="#DejaVuSans-2e" x="63.623047"/>
       <use xlink:href="#DejaVuSans-30" x="95.410156"/>
       <use xlink:href="#DejaVuSans-30" x="159.033203"/>
       <use xlink:href="#DejaVuSans-32" x="222.65625"/>
       <use xlink:href="#DejaVuSans-35" x="286.279297"/>
      </g>
     </g>
    </g>
   </g>
   <g id="matplotlib.axis_2">
    <g id="ytick_1">
     <g id="line2d_13">
      <path d="M 157.9 51.030427 
L 709.2 51.030427 
" clip-path="url(#p531a01e675)" style="fill: none; stroke-dasharray: 0.8,1.32; stroke-dashoffset: 0; stroke: #b0b0b0; stroke-width: 0.8"/>
     </g>
     <g id="line2d_14">
      <defs>
       <path id="m66031e8138" d="M 0 0 
L -3.5 0 
" style="stroke: #000000; stroke-width: 0.8"/>
      </defs>
      <g>
       <use xlink:href="#m66031e8138" x="157.9" y="51.030427" style="stroke: #000000; stroke-width: 0.8"/>
      </g>
     </g>
     <g id="text_7">
      <!-- es-abstract -->
      <g transform="translate(105.9125 54.069802) scale(0.08 -0.08)">
       <defs>
        <path id="DejaVuSans-65" d="M 3597 1894 
L 3597 1613 
L 953 1613 
Q 991 1019 1311 708 
Q 1631 397 2203 397 
Q 2534 397 2845 478 
Q 3156 559 3463 722 
L 3463 178 
Q 3153 47 2828 -22 
Q 2503 -91 2169 -91 
Q 1331 -91 842 396 
Q 353 884 353 1716 
Q 353 2575 817 3079 
Q 1281 3584 2069 3584 
Q 2775 3584 3186 3129 
Q 3597 2675 3597 1894 
z
M 3022 2063 
Q 3016 2534 2758 2815 
Q 2500 3097 2075 3097 
Q 1594 3097 1305 2825 
Q 1016 2553 972 2059 
L 3022 2063 
z
" transform="scale(0.015625)"/>
        <path id="DejaVuSans-73" d="M 2834 3397 
L 2834 2853 
Q 2591 2978 2328 3040 
Q 2066 3103 1784 3103 
Q 1356 3103 1142 2972 
Q 928 2841 928 2578 
Q 928 2378 1081 2264 
Q 1234 2150 1697 2047 
L 1894 2003 
Q 2506 1872 2764 1633 
Q 3022 1394 3022 966 
Q 3022 478 2636 193 
Q 2250 -91 1575 -91 
Q 1294 -91 989 -36 
Q 684 19 347 128 
L 347 722 
Q 666 556 975 473 
Q 1284 391 1588 391 
Q 1994 391 2212 530 
Q 2431 669 2431 922 
Q 2431 1156 2273 1281 
Q 2116 1406 1581 1522 
L 1381 1569 
Q 847 1681 609 1914 
Q 372 2147 372 2553 
Q 372 3047 722 3315 
Q 1072 3584 1716 3584 
Q 2034 3584 2315 3537 
Q 2597 3491 2834 3397 
z
" transform="scale(0.015625)"/>
        <path id="DejaVuSans-2d" d="M 313 2009 
L 1997 2009 
L 1997 1497 
L 313 1497 
L 313 2009 
z
" transform="scale(0.015625)"/>
        <path id="DejaVuSans-61" d="M 2194 1759 
Q 1497 1759 1228 1600 
Q 959 1441 959 1056 
Q 959 750 1161 570 
Q 1363 391 1709 391 
Q 2188 391 2477 730 
Q 2766 1069 2766 1631 
L 2766 1759 
L 2194 1759 
z
M 3341 1997 
L 3341 0 
L 2766 0 
L 2766 531 
Q 2569 213 2275 61 
Q 1981 -91 1556 -91 
Q 1019 -91 701 211 
Q 384 513 384 1019 
Q 384 1609 779 1909 
Q 1175 2209 1959 2209 
L 2766 2209 
L 2766 2266 
Q 2766 2663 2505 2880 
Q 2244 3097 1772 3097 
Q 1472 3097 1187 3025 
Q 903 2953 641 2809 
L 641 3341 
Q 956 3463 1253 3523 
Q 1550 3584 1831 3584 
Q 2591 3584 2966 3190 
Q 3341 2797 3341 1997 
z
" transform="scale(0.015625)"/>
        <path id="DejaVuSans-62" d="M 3116 1747 
Q 3116 2381 2855 2742 
Q 2594 3103 2138 3103 
Q 1681 3103 1420 2742 
Q 1159 2381 1159 1747 
Q 1159 1113 1420 752 
Q 1681 391 2138 391 
Q 2594 391 2855 752 
Q 3116 1113 3116 1747 
z
M 1159 2969 
Q 1341 3281 1617 3432 
Q 1894 3584 2278 3584 
Q 2916 3584 3314 3078 
Q 3713 2572 3713 1747 
Q 3713 922 3314 415 
Q 2916 -91 2278 -91 
Q 1894 -91 1617 61 
Q 1341 213 1159 525 
L 1159 0 
L 581 0 
L 581 4863 
L 1159 4863 
L 1159 2969 
z
" transform="scale(0.015625)"/>
        <path id="DejaVuSans-74" d="M 1172 4494 
L 1172 3500 
L 2356 3500 
L 2356 3053 
L 1172 3053 
L 1172 1153 
Q 1172 725 1289 603 
Q 1406 481 1766 481 
L 2356 481 
L 2356 0 
L 1766 0 
Q 1100 0 847 248 
Q 594 497 594 1153 
L 594 3053 
L 172 3053 
L 172 3500 
L 594 3500 
L 594 4494 
L 1172 4494 
z
" transform="scale(0.015625)"/>
        <path id="DejaVuSans-72" d="M 2631 2963 
Q 2534 3019 2420 3045 
Q 2306 3072 2169 3072 
Q 1681 3072 1420 2755 
Q 1159 2438 1159 1844 
L 1159 0 
L 581 0 
L 581 3500 
L 1159 3500 
L 1159 2956 
Q 1341 3275 1631 3429 
Q 1922 3584 2338 3584 
Q 2397 3584 2469 3576 
Q 2541 3569 2628 3553 
L 2631 2963 
z
" transform="scale(0.015625)"/>
        <path id="DejaVuSans-63" d="M 3122 3366 
L 3122 2828 
Q 2878 2963 2633 3030 
Q 2388 3097 2138 3097 
Q 1578 3097 1268 2742 
Q 959 2388 959 1747 
Q 959 1106 1268 751 
Q 1578 397 2138 397 
Q 2388 397 2633 464 
Q 2878 531 3122 666 
L 3122 134 
Q 2881 22 2623 -34 
Q 2366 -91 2075 -91 
Q 1284 -91 818 406 
Q 353 903 353 1747 
Q 353 2603 823 3093 
Q 1294 3584 2113 3584 
Q 2378 3584 2631 3529 
Q 2884 3475 3122 3366 
z
" transform="scale(0.015625)"/>
       </defs>
       <use xlink:href="#DejaVuSans-65"/>
       <use xlink:href="#DejaVuSans-73" x="61.523438"/>
       <use xlink:href="#DejaVuSans-2d" x="113.623047"/>
       <use xlink:href="#DejaVuSans-61" x="149.707031"/>
       <use xlink:href="#DejaVuSans-62" x="210.986328"/>
       <use xlink:href="#DejaVuSans-73" x="274.462891"/>
       <use xlink:href="#DejaVuSans-74" x="326.5625"/>
       <use xlink:href="#DejaVuSans-72" x="365.771484"/>
       <use xlink:href="#DejaVuSans-61" x="406.884766"/>
       <use xlink:href="#DejaVuSans-63" x="468.164062"/>
       <use xlink:href="#DejaVuSans-74" x="523.144531"/>
      </g>
     </g>
    </g>
    <g id="ytick_2">
     <g id="line2d_15">
      <path d="M 157.9 79.379221 
L 709.2 79.379221 
" clip-path="url(#p531a01e675)" style="fill: none; stroke-dasharray: 0.8,1.32; stroke-dashoffset: 0; stroke: #b0b0b0; stroke-width: 0.8"/>
     </g>
     <g id="line2d_16">
      <g>
       <use xlink:href="#m66031e8138" x="157.9" y="79.379221" style="stroke: #000000; stroke-width: 0.8"/>
      </g>
     </g>
     <g id="text_8">
      <!-- jest-circus -->
      <g transform="translate(110.19875 82.418596) scale(0.08 -0.08)">
       <defs>
        <path id="DejaVuSans-6a" d="M 603 3500 
L 1178 3500 
L 1178 -63 
Q 1178 -731 923 -1031 
Q 669 -1331 103 -1331 
L -116 -1331 
L -116 -844 
L 38 -844 
Q 366 -844 484 -692 
Q 603 -541 603 -63 
L 603 3500 
z
M 603 4863 
L 1178 4863 
L 1178 4134 
L 603 4134 
L 603 4863 
z
" transform="scale(0.015625)"/>
        <path id="DejaVuSans-69" d="M 603 3500 
L 1178 3500 
L 1178 0 
L 603 0 
L 603 3500 
z
M 603 4863 
L 1178 4863 
L 1178 4134 
L 603 4134 
L 603 4863 
z
" transform="scale(0.015625)"/>
        <path id="DejaVuSans-75" d="M 544 1381 
L 544 3500 
L 1119 3500 
L 1119 1403 
Q 1119 906 1312 657 
Q 1506 409 1894 409 
Q 2359 409 2629 706 
Q 2900 1003 2900 1516 
L 2900 3500 
L 3475 3500 
L 3475 0 
L 2900 0 
L 2900 538 
Q 2691 219 2414 64 
Q 2138 -91 1772 -91 
Q 1169 -91 856 284 
Q 544 659 544 1381 
z
M 1991 3584 
L 1991 3584 
z
" transform="scale(0.015625)"/>
       </defs>
       <use xlink:href="#DejaVuSans-6a"/>
       <use xlink:href="#DejaVuSans-65" x="27.783203"/>
       <use xlink:href="#DejaVuSans-73" x="89.306641"/>
       <use xlink:href="#DejaVuSans-74" x="141.40625"/>
       <use xlink:href="#DejaVuSans-2d" x="180.615234"/>
       <use xlink:href="#DejaVuSans-63" x="216.699219"/>
       <use xlink:href="#DejaVuSans-69" x="271.679688"/>
       <use xlink:href="#DejaVuSans-72" x="299.462891"/>
       <use xlink:href="#DejaVuSans-63" x="338.326172"/>
       <use xlink:href="#DejaVuSans-75" x="393.306641"/>
       <use xlink:href="#DejaVuSans-73" x="456.685547"/>
      </g>
     </g>
    </g>
    <g id="ytick_3">
     <g id="line2d_17">
      <path d="M 157.9 107.728015 
L 709.2 107.728015 
" clip-path="url(#p531a01e675)" style="fill: none; stroke-dasharray: 0.8,1.32; stroke-dashoffset: 0; stroke: #b0b0b0; stroke-width: 0.8"/>
     </g>
     <g id="line2d_18">
      <g>
       <use xlink:href="#m66031e8138" x="157.9" y="107.728015" style="stroke: #000000; stroke-width: 0.8"/>
      </g>
     </g>
     <g id="text_9">
      <!-- @babel/core -->
      <g transform="translate(100.675 110.76739) scale(0.08 -0.08)">
       <defs>
        <path id="DejaVuSans-40" d="M 2381 1678 
Q 2381 1231 2603 976 
Q 2825 722 3213 722 
Q 3597 722 3817 978 
Q 4038 1234 4038 1678 
Q 4038 2116 3813 2373 
Q 3588 2631 3206 2631 
Q 2828 2631 2604 2375 
Q 2381 2119 2381 1678 
z
M 4084 744 
Q 3897 503 3655 389 
Q 3413 275 3091 275 
Q 2553 275 2217 664 
Q 1881 1053 1881 1678 
Q 1881 2303 2218 2693 
Q 2556 3084 3091 3084 
Q 3413 3084 3656 2967 
Q 3900 2850 4084 2613 
L 4084 3022 
L 4531 3022 
L 4531 722 
Q 4988 791 5245 1139 
Q 5503 1488 5503 2041 
Q 5503 2375 5404 2669 
Q 5306 2963 5106 3213 
Q 4781 3622 4314 3839 
Q 3847 4056 3297 4056 
Q 2913 4056 2559 3954 
Q 2206 3853 1906 3653 
Q 1416 3334 1139 2817 
Q 863 2300 863 1697 
Q 863 1200 1042 765 
Q 1222 331 1563 0 
Q 1891 -325 2322 -495 
Q 2753 -666 3244 -666 
Q 3647 -666 4036 -530 
Q 4425 -394 4750 -141 
L 5031 -488 
Q 4641 -791 4180 -952 
Q 3719 -1113 3244 -1113 
Q 2666 -1113 2153 -908 
Q 1641 -703 1241 -313 
Q 841 78 631 592 
Q 422 1106 422 1697 
Q 422 2266 634 2781 
Q 847 3297 1241 3688 
Q 1644 4084 2172 4295 
Q 2700 4506 3291 4506 
Q 3953 4506 4520 4234 
Q 5088 3963 5472 3463 
Q 5706 3156 5829 2797 
Q 5953 2438 5953 2053 
Q 5953 1231 5456 756 
Q 4959 281 4084 263 
L 4084 744 
z
" transform="scale(0.015625)"/>
        <path id="DejaVuSans-6c" d="M 603 4863 
L 1178 4863 
L 1178 0 
L 603 0 
L 603 4863 
z
" transform="scale(0.015625)"/>
        <path id="DejaVuSans-2f" d="M 1625 4666 
L 2156 4666 
L 531 -594 
L 0 -594 
L 1625 4666 
z
" transform="scale(0.015625)"/>
        <path id="DejaVuSans-6f" d="M 1959 3097 
Q 1497 3097 1228 2736 
Q 959 2375 959 1747 
Q 959 1119 1226 758 
Q 1494 397 1959 397 
Q 2419 397 2687 759 
Q 2956 1122 2956 1747 
Q 2956 2369 2687 2733 
Q 2419 3097 1959 3097 
z
M 1959 3584 
Q 2709 3584 3137 3096 
Q 3566 2609 3566 1747 
Q 3566 888 3137 398 
Q 2709 -91 1959 -91 
Q 1206 -91 779 398 
Q 353 888 353 1747 
Q 353 2609 779 3096 
Q 1206 3584 1959 3584 
z
" transform="scale(0.015625)"/>
       </defs>
       <use xlink:href="#DejaVuSans-40"/>
       <use xlink:href="#DejaVuSans-62" x="100"/>
       <use xlink:href="#DejaVuSans-61" x="163.476562"/>
       <use xlink:href="#DejaVuSans-62" x="224.755859"/>
       <use xlink:href="#DejaVuSans-65" x="288.232422"/>
       <use xlink:href="#DejaVuSans-6c" x="349.755859"/>
       <use xlink:href="#DejaVuSans-2f" x="377.539062"/>
       <use xlink:href="#DejaVuSans-63" x="411.230469"/>
       <use xlink:href="#DejaVuSans-6f" x="466.210938"/>
       <use xlink:href="#DejaVuSans-72" x="527.392578"/>
       <use xlink:href="#DejaVuSans-65" x="566.255859"/>
      </g>
     </g>
    </g>
    <g id="ytick_4">
     <g id="line2d_19">
      <path d="M 157.9 136.076809 
L 709.2 136.076809 
" clip-path="url(#p531a01e675)" style="fill: none; stroke-dasharray: 0.8,1.32; stroke-dashoffset: 0; stroke: #b0b0b0; stroke-width: 0.8"/>
     </g>
     <g id="line2d_20">
      <g>
       <use xlink:href="#m66031e8138" x="157.9" y="136.076809" style="stroke: #000000; stroke-width: 0.8"/>
      </g>
     </g>
     <g id="text_10">
      <!-- babel-jest -->
      <g transform="translate(111.36 139.116184) scale(0.08 -0.08)">
       <use xlink:href="#DejaVuSans-62"/>
       <use xlink:href="#DejaVuSans-61" x="63.476562"/>
       <use xlink:href="#DejaVuSans-62" x="124.755859"/>
       <use xlink:href="#DejaVuSans-65" x="188.232422"/>
       <use xlink:href="#DejaVuSans-6c" x="249.755859"/>
       <use xlink:href="#DejaVuSans-2d" x="277.539062"/>
       <use xlink:href="#DejaVuSans-6a" x="313.623047"/>
       <use xlink:href="#DejaVuSans-65" x="341.40625"/>
       <use xlink:href="#DejaVuSans-73" x="402.929688"/>
       <use xlink:href="#DejaVuSans-74" x="455.029297"/>
      </g>
     </g>
    </g>
    <g id="ytick_5">
     <g id="line2d_21">
      <path d="M 157.9 164.425603 
L 709.2 164.425603 
" clip-path="url(#p531a01e675)" style="fill: none; stroke-dasharray: 0.8,1.32; stroke-dashoffset: 0; stroke: #b0b0b0; stroke-width: 0.8"/>
     </g>
     <g id="line2d_22">
      <g>
       <use xlink:href="#m66031e8138" x="157.9" y="164.425603" style="stroke: #000000; stroke-width: 0.8"/>
      </g>
     </g>
     <g id="text_11">
      <!-- jest-runner -->
      <g transform="translate(106.855 167.464978) scale(0.08 -0.08)">
       <defs>
        <path id="DejaVuSans-6e" d="M 3513 2113 
L 3513 0 
L 2938 0 
L 2938 2094 
Q 2938 2591 2744 2837 
Q 2550 3084 2163 3084 
Q 1697 3084 1428 2787 
Q 1159 2491 1159 1978 
L 1159 0 
L 581 0 
L 581 3500 
L 1159 3500 
L 1159 2956 
Q 1366 3272 1645 3428 
Q 1925 3584 2291 3584 
Q 2894 3584 3203 3211 
Q 3513 2838 3513 2113 
z
" transform="scale(0.015625)"/>
       </defs>
       <use xlink:href="#DejaVuSans-6a"/>
       <use xlink:href="#DejaVuSans-65" x="27.783203"/>
       <use xlink:href="#DejaVuSans-73" x="89.306641"/>
       <use xlink:href="#DejaVuSans-74" x="141.40625"/>
       <use xlink:href="#DejaVuSans-2d" x="180.615234"/>
       <use xlink:href="#DejaVuSans-72" x="216.699219"/>
       <use xlink:href="#DejaVuSans-75" x="257.8125"/>
       <use xlink:href="#DejaVuSans-6e" x="321.191406"/>
       <use xlink:href="#DejaVuSans-6e" x="384.570312"/>
       <use xlink:href="#DejaVuSans-65" x="447.949219"/>
       <use xlink:href="#DejaVuSans-72" x="509.472656"/>
      </g>
     </g>
    </g>
    <g id="ytick_6">
     <g id="line2d_23">
      <path d="M 157.9 192.774397 
L 709.2 192.774397 
" clip-path="url(#p531a01e675)" style="fill: none; stroke-dasharray: 0.8,1.32; stroke-dashoffset: 0; stroke: #b0b0b0; stroke-width: 0.8"/>
     </g>
     <g id="line2d_24">
      <g>
       <use xlink:href="#m66031e8138" x="157.9" y="192.774397" style="stroke: #000000; stroke-width: 0.8"/>
      </g>
     </g>
     <g id="text_12">
      <!-- jest-snapshot -->
      <g transform="translate(97.0775 195.813772) scale(0.08 -0.08)">
       <defs>
        <path id="DejaVuSans-70" d="M 1159 525 
L 1159 -1331 
L 581 -1331 
L 581 3500 
L 1159 3500 
L 1159 2969 
Q 1341 3281 1617 3432 
Q 1894 3584 2278 3584 
Q 2916 3584 3314 3078 
Q 3713 2572 3713 1747 
Q 3713 922 3314 415 
Q 2916 -91 2278 -91 
Q 1894 -91 1617 61 
Q 1341 213 1159 525 
z
M 3116 1747 
Q 3116 2381 2855 2742 
Q 2594 3103 2138 3103 
Q 1681 3103 1420 2742 
Q 1159 2381 1159 1747 
Q 1159 1113 1420 752 
Q 1681 391 2138 391 
Q 2594 391 2855 752 
Q 3116 1113 3116 1747 
z
" transform="scale(0.015625)"/>
        <path id="DejaVuSans-68" d="M 3513 2113 
L 3513 0 
L 2938 0 
L 2938 2094 
Q 2938 2591 2744 2837 
Q 2550 3084 2163 3084 
Q 1697 3084 1428 2787 
Q 1159 2491 1159 1978 
L 1159 0 
L 581 0 
L 581 4863 
L 1159 4863 
L 1159 2956 
Q 1366 3272 1645 3428 
Q 1925 3584 2291 3584 
Q 2894 3584 3203 3211 
Q 3513 2838 3513 2113 
z
" transform="scale(0.015625)"/>
       </defs>
       <use xlink:href="#DejaVuSans-6a"/>
       <use xlink:href="#DejaVuSans-65" x="27.783203"/>
       <use xlink:href="#DejaVuSans-73" x="89.306641"/>
       <use xlink:href="#DejaVuSans-74" x="141.40625"/>
       <use xlink:href="#DejaVuSans-2d" x="180.615234"/>
       <use xlink:href="#DejaVuSans-73" x="216.699219"/>
       <use xlink:href="#DejaVuSans-6e" x="268.798828"/>
       <use xlink:href="#DejaVuSans-61" x="332.177734"/>
       <use xlink:href="#DejaVuSans-70" x="393.457031"/>
       <use xlink:href="#DejaVuSans-73" x="456.933594"/>
       <use xlink:href="#DejaVuSans-68" x="509.033203"/>
       <use xlink:href="#DejaVuSans-6f" x="572.412109"/>
       <use xlink:href="#DejaVuSans-74" x="633.59375"/>
      </g>
     </g>
    </g>
    <g id="ytick_7">
     <g id="line2d_25">
      <path d="M 157.9 221.123191 
L 709.2 221.123191 
" clip-path="url(#p531a01e675)" style="fill: none; stroke-dasharray: 0.8,1.32; stroke-dashoffset: 0; stroke: #b0b0b0; stroke-width: 0.8"/>
     </g>
     <g id="line2d_26">
      <g>
       <use xlink:href="#m66031e8138" x="157.9" y="221.123191" style="stroke: #000000; stroke-width: 0.8"/>
      </g>
     </g>
     <g id="text_13">
      <!-- babel-preset-current-node-syntax -->
      <g transform="translate(16.24625 224.162566) scale(0.08 -0.08)">
       <defs>
        <path id="DejaVuSans-64" d="M 2906 2969 
L 2906 4863 
L 3481 4863 
L 3481 0 
L 2906 0 
L 2906 525 
Q 2725 213 2448 61 
Q 2172 -91 1784 -91 
Q 1150 -91 751 415 
Q 353 922 353 1747 
Q 353 2572 751 3078 
Q 1150 3584 1784 3584 
Q 2172 3584 2448 3432 
Q 2725 3281 2906 2969 
z
M 947 1747 
Q 947 1113 1208 752 
Q 1469 391 1925 391 
Q 2381 391 2643 752 
Q 2906 1113 2906 1747 
Q 2906 2381 2643 2742 
Q 2381 3103 1925 3103 
Q 1469 3103 1208 2742 
Q 947 2381 947 1747 
z
" transform="scale(0.015625)"/>
        <path id="DejaVuSans-79" d="M 2059 -325 
Q 1816 -950 1584 -1140 
Q 1353 -1331 966 -1331 
L 506 -1331 
L 506 -850 
L 844 -850 
Q 1081 -850 1212 -737 
Q 1344 -625 1503 -206 
L 1606 56 
L 191 3500 
L 800 3500 
L 1894 763 
L 2988 3500 
L 3597 3500 
L 2059 -325 
z
" transform="scale(0.015625)"/>
        <path id="DejaVuSans-78" d="M 3513 3500 
L 2247 1797 
L 3578 0 
L 2900 0 
L 1881 1375 
L 863 0 
L 184 0 
L 1544 1831 
L 300 3500 
L 978 3500 
L 1906 2253 
L 2834 3500 
L 3513 3500 
z
" transform="scale(0.015625)"/>
       </defs>
       <use xlink:href="#DejaVuSans-62"/>
       <use xlink:href="#DejaVuSans-61" x="63.476562"/>
       <use xlink:href="#DejaVuSans-62" x="124.755859"/>
       <use xlink:href="#DejaVuSans-65" x="188.232422"/>
       <use xlink:href="#DejaVuSans-6c" x="249.755859"/>
       <use xlink:href="#DejaVuSans-2d" x="277.539062"/>
       <use xlink:href="#DejaVuSans-70" x="313.623047"/>
       <use xlink:href="#DejaVuSans-72" x="377.099609"/>
       <use xlink:href="#DejaVuSans-65" x="415.962891"/>
       <use xlink:href="#DejaVuSans-73" x="477.486328"/>
       <use xlink:href="#DejaVuSans-65" x="529.585938"/>
       <use xlink:href="#DejaVuSans-74" x="591.109375"/>
       <use xlink:href="#DejaVuSans-2d" x="630.318359"/>
       <use xlink:href="#DejaVuSans-63" x="666.402344"/>
       <use xlink:href="#DejaVuSans-75" x="721.382812"/>
       <use xlink:href="#DejaVuSans-72" x="784.761719"/>
       <use xlink:href="#DejaVuSans-72" x="824.125"/>
       <use xlink:href="#DejaVuSans-65" x="862.988281"/>
       <use xlink:href="#DejaVuSans-6e" x="924.511719"/>
       <use xlink:href="#DejaVuSans-74" x="987.890625"/>
       <use xlink:href="#DejaVuSans-2d" x="1027.099609"/>
       <use xlink:href="#DejaVuSans-6e" x="1063.183594"/>
       <use xlink:href="#DejaVuSans-6f" x="1126.5625"/>
       <use xlink:href="#DejaVuSans-64" x="1187.744141"/>
       <use xlink:href="#DejaVuSans-65" x="1251.220703"/>
       <use xlink:href="#DejaVuSans-2d" x="1312.744141"/>
       <use xlink:href="#DejaVuSans-73" x="1348.828125"/>
       <use xlink:href="#DejaVuSans-79" x="1400.927734"/>
       <use xlink:href="#DejaVuSans-6e" x="1460.107422"/>
       <use xlink:href="#DejaVuSans-74" x="1523.486328"/>
       <use xlink:href="#DejaVuSans-61" x="1562.695312"/>
       <use xlink:href="#DejaVuSans-78" x="1623.974609"/>
      </g>
     </g>
    </g>
    <g id="ytick_8">
     <g id="line2d_27">
      <path d="M 157.9 249.471985 
L 709.2 249.471985 
" clip-path="url(#p531a01e675)" style="fill: none; stroke-dasharray: 0.8,1.32; stroke-dashoffset: 0; stroke: #b0b0b0; stroke-width: 0.8"/>
     </g>
     <g id="line2d_28">
      <g>
       <use xlink:href="#m66031e8138" x="157.9" y="249.471985" style="stroke: #000000; stroke-width: 0.8"/>
      </g>
     </g>
     <g id="text_14">
      <!-- babel-plugin-istanbul -->
      <g transform="translate(66.31 252.51136) scale(0.08 -0.08)">
       <defs>
        <path id="DejaVuSans-67" d="M 2906 1791 
Q 2906 2416 2648 2759 
Q 2391 3103 1925 3103 
Q 1463 3103 1205 2759 
Q 947 2416 947 1791 
Q 947 1169 1205 825 
Q 1463 481 1925 481 
Q 2391 481 2648 825 
Q 2906 1169 2906 1791 
z
M 3481 434 
Q 3481 -459 3084 -895 
Q 2688 -1331 1869 -1331 
Q 1566 -1331 1297 -1286 
Q 1028 -1241 775 -1147 
L 775 -588 
Q 1028 -725 1275 -790 
Q 1522 -856 1778 -856 
Q 2344 -856 2625 -561 
Q 2906 -266 2906 331 
L 2906 616 
Q 2728 306 2450 153 
Q 2172 0 1784 0 
Q 1141 0 747 490 
Q 353 981 353 1791 
Q 353 2603 747 3093 
Q 1141 3584 1784 3584 
Q 2172 3584 2450 3431 
Q 2728 3278 2906 2969 
L 2906 3500 
L 3481 3500 
L 3481 434 
z
" transform="scale(0.015625)"/>
       </defs>
       <use xlink:href="#DejaVuSans-62"/>
       <use xlink:href="#DejaVuSans-61" x="63.476562"/>
       <use xlink:href="#DejaVuSans-62" x="124.755859"/>
       <use xlink:href="#DejaVuSans-65" x="188.232422"/>
       <use xlink:href="#DejaVuSans-6c" x="249.755859"/>
       <use xlink:href="#DejaVuSans-2d" x="277.539062"/>
       <use xlink:href="#DejaVuSans-70" x="313.623047"/>
       <use xlink:href="#DejaVuSans-6c" x="377.099609"/>
       <use xlink:href="#DejaVuSans-75" x="404.882812"/>
       <use xlink:href="#DejaVuSans-67" x="468.261719"/>
       <use xlink:href="#DejaVuSans-69" x="531.738281"/>
       <use xlink:href="#DejaVuSans-6e" x="559.521484"/>
       <use xlink:href="#DejaVuSans-2d" x="622.900391"/>
       <use xlink:href="#DejaVuSans-69" x="658.984375"/>
       <use xlink:href="#DejaVuSans-73" x="686.767578"/>
       <use xlink:href="#DejaVuSans-74" x="738.867188"/>
       <use xlink:href="#DejaVuSans-61" x="778.076172"/>
       <use xlink:href="#DejaVuSans-6e" x="839.355469"/>
       <use xlink:href="#DejaVuSans-62" x="902.734375"/>
       <use xlink:href="#DejaVuSans-75" x="966.210938"/>
       <use xlink:href="#DejaVuSans-6c" x="1029.589844"/>
      </g>
     </g>
    </g>
    <g id="ytick_9">
     <g id="line2d_29">
      <path d="M 157.9 277.820779 
L 709.2 277.820779 
" clip-path="url(#p531a01e675)" style="fill: none; stroke-dasharray: 0.8,1.32; stroke-dashoffset: 0; stroke: #b0b0b0; stroke-width: 0.8"/>
     </g>
     <g id="line2d_30">
      <g>
       <use xlink:href="#m66031e8138" x="157.9" y="277.820779" style="stroke: #000000; stroke-width: 0.8"/>
      </g>
     </g>
     <g id="text_15">
      <!-- reflect.getprototypeof -->
      <g transform="translate(62.995 280.860154) scale(0.08 -0.08)">
       <defs>
        <path id="DejaVuSans-66" d="M 2375 4863 
L 2375 4384 
L 1825 4384 
Q 1516 4384 1395 4259 
Q 1275 4134 1275 3809 
L 1275 3500 
L 2222 3500 
L 2222 3053 
L 1275 3053 
L 1275 0 
L 697 0 
L 697 3053 
L 147 3053 
L 147 3500 
L 697 3500 
L 697 3744 
Q 697 4328 969 4595 
Q 1241 4863 1831 4863 
L 2375 4863 
z
" transform="scale(0.015625)"/>
       </defs>
       <use xlink:href="#DejaVuSans-72"/>
       <use xlink:href="#DejaVuSans-65" x="38.863281"/>
       <use xlink:href="#DejaVuSans-66" x="100.386719"/>
       <use xlink:href="#DejaVuSans-6c" x="135.591797"/>
       <use xlink:href="#DejaVuSans-65" x="163.375"/>
       <use xlink:href="#DejaVuSans-63" x="224.898438"/>
       <use xlink:href="#DejaVuSans-74" x="279.878906"/>
       <use xlink:href="#DejaVuSans-2e" x="319.087891"/>
       <use xlink:href="#DejaVuSans-67" x="350.875"/>
       <use xlink:href="#DejaVuSans-65" x="414.351562"/>
       <use xlink:href="#DejaVuSans-74" x="475.875"/>
       <use xlink:href="#DejaVuSans-70" x="515.083984"/>
       <use xlink:href="#DejaVuSans-72" x="578.560547"/>
       <use xlink:href="#DejaVuSans-6f" x="617.423828"/>
       <use xlink:href="#DejaVuSans-74" x="678.605469"/>
       <use xlink:href="#DejaVuSans-6f" x="717.814453"/>
       <use xlink:href="#DejaVuSans-74" x="778.996094"/>
       <use xlink:href="#DejaVuSans-79" x="818.205078"/>
       <use xlink:href="#DejaVuSans-70" x="877.384766"/>
       <use xlink:href="#DejaVuSans-65" x="940.861328"/>
       <use xlink:href="#DejaVuSans-6f" x="1002.384766"/>
       <use xlink:href="#DejaVuSans-66" x="1063.566406"/>
      </g>
     </g>
    </g>
    <g id="ytick_10">
     <g id="line2d_31">
      <path d="M 157.9 306.169573 
L 709.2 306.169573 
" clip-path="url(#p531a01e675)" style="fill: none; stroke-dasharray: 0.8,1.32; stroke-dashoffset: 0; stroke: #b0b0b0; stroke-width: 0.8"/>
     </g>
     <g id="line2d_32">
      <g>
       <use xlink:href="#m66031e8138" x="157.9" y="306.169573" style="stroke: #000000; stroke-width: 0.8"/>
      </g>
     </g>
     <g id="text_16">
      <!-- @babel/helper-compilation-targets -->
      <g transform="translate(11.90375 309.208948) scale(0.08 -0.08)">
       <defs>
        <path id="DejaVuSans-6d" d="M 3328 2828 
Q 3544 3216 3844 3400 
Q 4144 3584 4550 3584 
Q 5097 3584 5394 3201 
Q 5691 2819 5691 2113 
L 5691 0 
L 5113 0 
L 5113 2094 
Q 5113 2597 4934 2840 
Q 4756 3084 4391 3084 
Q 3944 3084 3684 2787 
Q 3425 2491 3425 1978 
L 3425 0 
L 2847 0 
L 2847 2094 
Q 2847 2600 2669 2842 
Q 2491 3084 2119 3084 
Q 1678 3084 1418 2786 
Q 1159 2488 1159 1978 
L 1159 0 
L 581 0 
L 581 3500 
L 1159 3500 
L 1159 2956 
Q 1356 3278 1631 3431 
Q 1906 3584 2284 3584 
Q 2666 3584 2933 3390 
Q 3200 3197 3328 2828 
z
" transform="scale(0.015625)"/>
       </defs>
       <use xlink:href="#DejaVuSans-40"/>
       <use xlink:href="#DejaVuSans-62" x="100"/>
       <use xlink:href="#DejaVuSans-61" x="163.476562"/>
       <use xlink:href="#DejaVuSans-62" x="224.755859"/>
       <use xlink:href="#DejaVuSans-65" x="288.232422"/>
       <use xlink:href="#DejaVuSans-6c" x="349.755859"/>
       <use xlink:href="#DejaVuSans-2f" x="377.539062"/>
       <use xlink:href="#DejaVuSans-68" x="411.230469"/>
       <use xlink:href="#DejaVuSans-65" x="474.609375"/>
       <use xlink:href="#DejaVuSans-6c" x="536.132812"/>
       <use xlink:href="#DejaVuSans-70" x="563.916016"/>
       <use xlink:href="#DejaVuSans-65" x="627.392578"/>
       <use xlink:href="#DejaVuSans-72" x="688.916016"/>
       <use xlink:href="#DejaVuSans-2d" x="723.654297"/>
       <use xlink:href="#DejaVuSans-63" x="759.738281"/>
       <use xlink:href="#DejaVuSans-6f" x="814.71875"/>
       <use xlink:href="#DejaVuSans-6d" x="875.900391"/>
       <use xlink:href="#DejaVuSans-70" x="973.3125"/>
       <use xlink:href="#DejaVuSans-69" x="1036.789062"/>
       <use xlink:href="#DejaVuSans-6c" x="1064.572266"/>
       <use xlink:href="#DejaVuSans-61" x="1092.355469"/>
       <use xlink:href="#DejaVuSans-74" x="1153.634766"/>
       <use xlink:href="#DejaVuSans-69" x="1192.84375"/>
       <use xlink:href="#DejaVuSans-6f" x="1220.626953"/>
       <use xlink:href="#DejaVuSans-6e" x="1281.808594"/>
       <use xlink:href="#DejaVuSans-2d" x="1345.1875"/>
       <use xlink:href="#DejaVuSans-74" x="1381.271484"/>
       <use xlink:href="#DejaVuSans-61" x="1420.480469"/>
       <use xlink:href="#DejaVuSans-72" x="1481.759766"/>
       <use xlink:href="#DejaVuSans-67" x="1521.123047"/>
       <use xlink:href="#DejaVuSans-65" x="1584.599609"/>
       <use xlink:href="#DejaVuSans-74" x="1646.123047"/>
       <use xlink:href="#DejaVuSans-73" x="1685.332031"/>
      </g>
     </g>
    </g>
   </g>
   <g id="patch_13">
    <path d="M 157.9 331.4 
L 157.9 25.8 
" style="fill: none; stroke: #000000; stroke-width: 0.8; stroke-linejoin: miter; stroke-linecap: square"/>
   </g>
   <g id="patch_14">
    <path d="M 709.2 331.4 
L 709.2 25.8 
" style="fill: none; stroke: #000000; stroke-width: 0.8; stroke-linejoin: miter; stroke-linecap: square"/>
   </g>
   <g id="patch_15">
    <path d="M 157.9 331.4 
L 709.2 331.4 
" style="fill: none; stroke: #000000; stroke-width: 0.8; stroke-linejoin: miter; stroke-linecap: square"/>
   </g>
   <g id="patch_16">
    <path d="M 157.9 25.8 
L 709.2 25.8 
" style="fill: none; stroke: #000000; stroke-width: 0.8; stroke-linejoin: miter; stroke-linecap: square"/>
   </g>
   <g id="text_17">
    <!-- İlk 10 Betweenness -->
    <g transform="translate(375.190625 19.8) scale(0.12 -0.12)">
     <defs>
      <path id="DejaVuSans-130" d="M 628 4666 
L 1259 4666 
L 1259 0 
L 628 0 
L 628 4666 
z
M 625 5836 
L 1263 5836 
L 1263 5196 
L 625 5196 
L 625 5836 
z
" transform="scale(0.015625)"/>
      <path id="DejaVuSans-6b" d="M 581 4863 
L 1159 4863 
L 1159 1991 
L 2875 3500 
L 3609 3500 
L 1753 1863 
L 3688 0 
L 2938 0 
L 1159 1709 
L 1159 0 
L 581 0 
L 581 4863 
z
" transform="scale(0.015625)"/>
      <path id="DejaVuSans-20" transform="scale(0.015625)"/>
      <path id="DejaVuSans-42" d="M 1259 2228 
L 1259 519 
L 2272 519 
Q 2781 519 3026 730 
Q 3272 941 3272 1375 
Q 3272 1813 3026 2020 
Q 2781 2228 2272 2228 
L 1259 2228 
z
M 1259 4147 
L 1259 2741 
L 2194 2741 
Q 2656 2741 2882 2914 
Q 3109 3088 3109 3444 
Q 3109 3797 2882 3972 
Q 2656 4147 2194 4147 
L 1259 4147 
z
M 628 4666 
L 2241 4666 
Q 2963 4666 3353 4366 
Q 3744 4066 3744 3513 
Q 3744 3084 3544 2831 
Q 3344 2578 2956 2516 
Q 3422 2416 3680 2098 
Q 3938 1781 3938 1306 
Q 3938 681 3513 340 
Q 3088 0 2303 0 
L 628 0 
L 628 4666 
z
" transform="scale(0.015625)"/>
      <path id="DejaVuSans-77" d="M 269 3500 
L 844 3500 
L 1563 769 
L 2278 3500 
L 2956 3500 
L 3675 769 
L 4391 3500 
L 4966 3500 
L 4050 0 
L 3372 0 
L 2619 2869 
L 1863 0 
L 1184 0 
L 269 3500 
z
" transform="scale(0.015625)"/>
     </defs>
     <use xlink:href="#DejaVuSans-130"/>
     <use xlink:href="#DejaVuSans-6c" x="29.492188"/>
     <use xlink:href="#DejaVuSans-6b" x="57.275391"/>
     <use xlink:href="#DejaVuSans-20" x="115.185547"/>
     <use xlink:href="#DejaVuSans-31" x="146.972656"/>
     <use xlink:href="#DejaVuSans-30" x="210.595703"/>
     <use xlink:href="#DejaVuSans-20" x="274.21875"/>
     <use xlink:href="#DejaVuSans-42" x="306.005859"/>
     <use xlink:href="#DejaVuSans-65" x="374.609375"/>
     <use xlink:href="#DejaVuSans-74" x="436.132812"/>
     <use xlink:href="#DejaVuSans-77" x="475.341797"/>
     <use xlink:href="#DejaVuSans-65" x="557.128906"/>
     <use xlink:href="#DejaVuSans-65" x="618.652344"/>
     <use xlink:href="#DejaVuSans-6e" x="680.175781"/>
     <use xlink:href="#DejaVuSans-6e" x="743.554688"/>
     <use xlink:href="#DejaVuSans-65" x="806.933594"/>
     <use xlink:href="#DejaVuSans-73" x="868.457031"/>
     <use xlink:href="#DejaVuSans-73" x="920.556641"/>
    </g>
   </g>
  </g>
 </g>
 <defs>
  <clipPath id="p531a01e675">
   <rect x="157.9" y="25.8" width="551.3" height="305.6"/>
  </clipPath>
 </defs>
</svg>
